G04 #@! TF.FileFunction,Copper,L2,Bot,Signal*
%FSLAX46Y46*%
G04 Gerber Fmt 4.6, Leading zero omitted, Abs format (unit mm)*
G04 Created by KiCad (PCBNEW 4.0.7) date 10/28/18 02:33:58*
%MOMM*%
%LPD*%
G01*
G04 APERTURE LIST*
%ADD10C,0.100000*%
%ADD11R,1.600000X1.600000*%
%ADD12O,1.600000X1.600000*%
%ADD13R,1.700000X1.700000*%
%ADD14O,1.700000X1.700000*%
%ADD15C,0.900000*%
%ADD16C,0.400000*%
%ADD17C,0.700000*%
%ADD18C,0.800000*%
%ADD19C,0.300000*%
%ADD20C,0.250000*%
%ADD21C,0.600000*%
%ADD22C,0.254000*%
G04 APERTURE END LIST*
D10*
D11*
X148500000Y-98500000D03*
D12*
X156120000Y-116280000D03*
X148500000Y-101040000D03*
X156120000Y-113740000D03*
X148500000Y-103580000D03*
X156120000Y-111200000D03*
X148500000Y-106120000D03*
X156120000Y-108660000D03*
X148500000Y-108660000D03*
X156120000Y-106120000D03*
X148500000Y-111200000D03*
X156120000Y-103580000D03*
X148500000Y-113740000D03*
X156120000Y-101040000D03*
X148500000Y-116280000D03*
X156120000Y-98500000D03*
D13*
X166500000Y-122500000D03*
D14*
X169040000Y-122500000D03*
X171580000Y-122500000D03*
D13*
X166500000Y-127000000D03*
D14*
X169040000Y-127000000D03*
X171580000Y-127000000D03*
D13*
X166500000Y-131500000D03*
D14*
X169040000Y-131500000D03*
X171580000Y-131500000D03*
D13*
X187250000Y-98750000D03*
D14*
X187250000Y-101290000D03*
X187250000Y-103830000D03*
X187250000Y-106370000D03*
X187250000Y-108910000D03*
X187250000Y-111450000D03*
X187250000Y-113990000D03*
X187250000Y-116530000D03*
D13*
X139500000Y-99000000D03*
D14*
X139500000Y-101540000D03*
X139500000Y-104080000D03*
X139500000Y-106620000D03*
X139500000Y-109160000D03*
X139500000Y-111700000D03*
X139500000Y-114240000D03*
X139500000Y-116780000D03*
D11*
X168500000Y-98500000D03*
D12*
X176120000Y-116280000D03*
X168500000Y-101040000D03*
X176120000Y-113740000D03*
X168500000Y-103580000D03*
X176120000Y-111200000D03*
X168500000Y-106120000D03*
X176120000Y-108660000D03*
X168500000Y-108660000D03*
X176120000Y-106120000D03*
X168500000Y-111200000D03*
X176120000Y-103580000D03*
X168500000Y-113740000D03*
X176120000Y-101040000D03*
X168500000Y-116280000D03*
X176120000Y-98500000D03*
D13*
X136000000Y-131500000D03*
D14*
X136000000Y-128960000D03*
X138540000Y-131500000D03*
X138540000Y-128960000D03*
X141080000Y-131500000D03*
X141080000Y-128960000D03*
X143620000Y-131500000D03*
X143620000Y-128960000D03*
X146160000Y-131500000D03*
X146160000Y-128960000D03*
D13*
X154000000Y-122500000D03*
D14*
X156540000Y-122500000D03*
X159080000Y-122500000D03*
D13*
X154000000Y-127000000D03*
D14*
X156540000Y-127000000D03*
X159080000Y-127000000D03*
D13*
X154000000Y-131500000D03*
D14*
X156540000Y-131500000D03*
X159080000Y-131500000D03*
D15*
X171100000Y-93900000D03*
X171100000Y-97500000D03*
X146300000Y-126700000D03*
X149700000Y-126700000D03*
X177700000Y-99700000D03*
X177700000Y-102500000D03*
X149500000Y-124100000D03*
X179800000Y-101700000D03*
X162750000Y-100250000D03*
X134700000Y-91300000D03*
X191750000Y-91000000D03*
X193000000Y-130750000D03*
X193000000Y-127500000D03*
X196500000Y-126750000D03*
X196500000Y-121750000D03*
X196500000Y-116750000D03*
X196500000Y-111750000D03*
X196500000Y-106750000D03*
X196500000Y-101750000D03*
X196500000Y-91750000D03*
X196500000Y-96750000D03*
X130750000Y-125000000D03*
X130750000Y-120000000D03*
X130750000Y-115000000D03*
X130750000Y-110000000D03*
X130750000Y-105000000D03*
X130750000Y-100000000D03*
X130750000Y-95000000D03*
X130750000Y-90250000D03*
D16*
X146300000Y-112500000D03*
X166000000Y-117100000D03*
X182750000Y-108000000D03*
X181500000Y-117500000D03*
X145100000Y-111300000D03*
X164900000Y-117700000D03*
X182750000Y-117500000D03*
X166000000Y-111000000D03*
X180000000Y-109000000D03*
X179250000Y-111500000D03*
X178500000Y-112750000D03*
X143900000Y-110300000D03*
D17*
X185250000Y-129000000D03*
X180000000Y-129000000D03*
D18*
X171100000Y-97500000D02*
X171100000Y-93900000D01*
X146300000Y-126700000D02*
X149700000Y-126700000D01*
X177700000Y-102500000D02*
X177700000Y-99700000D01*
X154000000Y-131500000D02*
X154000000Y-127000000D01*
X166500000Y-131500000D02*
X166500000Y-127000000D01*
X166500000Y-122500000D02*
X166500000Y-127000000D01*
X154000000Y-122500000D02*
X154000000Y-127000000D01*
X171580000Y-127000000D02*
X171580000Y-131500000D01*
X171580000Y-122500000D02*
X171580000Y-127000000D01*
X159080000Y-127000000D02*
X159080000Y-131500000D01*
X159080000Y-122500000D02*
X159080000Y-127000000D01*
D19*
X153984726Y-97517421D02*
X153984726Y-99984726D01*
X146300000Y-112500000D02*
X146300000Y-97500000D01*
X146300000Y-97500000D02*
X147500000Y-96300000D01*
X147500000Y-96300000D02*
X152597846Y-96301464D01*
X152597846Y-96301464D02*
X153984726Y-97517421D01*
X155040000Y-101040000D02*
X156120000Y-101040000D01*
X153984726Y-99984726D02*
X155040000Y-101040000D01*
X166000000Y-117100000D02*
X167000000Y-118100000D01*
X167000000Y-118100000D02*
X173300000Y-118100000D01*
X173300000Y-118100000D02*
X173900000Y-117500000D01*
X173900000Y-117500000D02*
X173900000Y-103260000D01*
X173900000Y-103260000D02*
X176120000Y-101040000D01*
X182750000Y-116250000D02*
X182750000Y-108000000D01*
X181500000Y-117500000D02*
X182750000Y-116250000D01*
X156240000Y-103700000D02*
X158700000Y-103700000D01*
X160169649Y-102210266D02*
X158700000Y-103700000D01*
X160201227Y-97492059D02*
X160169649Y-102210266D01*
X158250000Y-95500000D02*
X160201227Y-97492059D01*
X147100000Y-95500000D02*
X158250000Y-95500000D01*
X145100000Y-97500000D02*
X147100000Y-95500000D01*
X145100000Y-97900000D02*
X145100000Y-97500000D01*
X145100000Y-111300000D02*
X145100000Y-97900000D01*
X156240000Y-103700000D02*
X156120000Y-103580000D01*
X174700000Y-105000000D02*
X176120000Y-103580000D01*
X174700000Y-117900000D02*
X174700000Y-105000000D01*
X173700000Y-118900000D02*
X174700000Y-117900000D01*
X166100000Y-118900000D02*
X173700000Y-118900000D01*
X164900000Y-117700000D02*
X166100000Y-118900000D01*
X182750000Y-117500000D02*
X183500000Y-116750000D01*
X183500000Y-116750000D02*
X183500000Y-105500000D01*
X183500000Y-105500000D02*
X181580000Y-103580000D01*
X181580000Y-103580000D02*
X176120000Y-103580000D01*
D20*
X176080000Y-103580000D02*
X176120000Y-103580000D01*
D19*
X187250000Y-98750000D02*
X183250000Y-98750000D01*
X171630000Y-106120000D02*
X168500000Y-106120000D01*
X172500000Y-105250000D02*
X171630000Y-106120000D01*
X172500000Y-97250000D02*
X172500000Y-105250000D01*
X174000000Y-95500000D02*
X172500000Y-97250000D01*
X180750000Y-95500000D02*
X174000000Y-95500000D01*
X182500000Y-97250000D02*
X180750000Y-95500000D01*
X182500000Y-98000000D02*
X182500000Y-97250000D01*
X183250000Y-98750000D02*
X182500000Y-98000000D01*
X187250000Y-101290000D02*
X182790000Y-101290000D01*
X172090000Y-108660000D02*
X168500000Y-108660000D01*
X173250000Y-107500000D02*
X172090000Y-108660000D01*
X173250000Y-97500000D02*
X173250000Y-107500000D01*
X174500000Y-96250000D02*
X173250000Y-97500000D01*
X180500000Y-96250000D02*
X174500000Y-96250000D01*
X181500000Y-97250000D02*
X180500000Y-96250000D01*
X181500000Y-100000000D02*
X181500000Y-97250000D01*
X182790000Y-101290000D02*
X181500000Y-100000000D01*
X166200000Y-111200000D02*
X168500000Y-111200000D01*
X166000000Y-111000000D02*
X166200000Y-111200000D01*
X177720000Y-116280000D02*
X176120000Y-116280000D01*
X180000000Y-114000000D02*
X177720000Y-116280000D01*
X180000000Y-109250000D02*
X180000000Y-114000000D01*
X180000000Y-109000000D02*
X180000000Y-109250000D01*
X179010000Y-113740000D02*
X176120000Y-113740000D01*
X179250000Y-113500000D02*
X179010000Y-113740000D01*
X179250000Y-111500000D02*
X179250000Y-113500000D01*
X177700000Y-111200000D02*
X176870000Y-111200000D01*
X178500000Y-112750000D02*
X177700000Y-111200000D01*
X139500000Y-109160000D02*
X141910000Y-109160000D01*
X156120000Y-117880000D02*
X156120000Y-116280000D01*
X155750000Y-118250000D02*
X156120000Y-117880000D01*
X147250000Y-118250000D02*
X155750000Y-118250000D01*
X146750000Y-117750000D02*
X147250000Y-118250000D01*
X146750000Y-114000000D02*
X146750000Y-117750000D01*
X141910000Y-109160000D02*
X146750000Y-114000000D01*
X139500000Y-111700000D02*
X143100000Y-111700000D01*
X157240000Y-113740000D02*
X156120000Y-113740000D01*
X157750000Y-114250000D02*
X157240000Y-113740000D01*
X157750000Y-118500000D02*
X157750000Y-114250000D01*
X157250000Y-119000000D02*
X157750000Y-118500000D01*
X147000000Y-119000000D02*
X157250000Y-119000000D01*
X146000000Y-118000000D02*
X147000000Y-119000000D01*
X146000000Y-114500000D02*
X146000000Y-118000000D01*
X143100000Y-111700000D02*
X146000000Y-114500000D01*
D20*
X139500000Y-111700000D02*
X139500000Y-112250000D01*
D19*
X139500000Y-114240000D02*
X144740000Y-114240000D01*
X157950000Y-111200000D02*
X156120000Y-111200000D01*
X158500000Y-111750000D02*
X157950000Y-111200000D01*
X158500000Y-118750000D02*
X158500000Y-111750000D01*
X157500000Y-119750000D02*
X158500000Y-118750000D01*
X146750000Y-119750000D02*
X157500000Y-119750000D01*
X145250000Y-118250000D02*
X146750000Y-119750000D01*
X145250000Y-114750000D02*
X145250000Y-118250000D01*
X144740000Y-114240000D02*
X145250000Y-114750000D01*
D20*
X139500000Y-114240000D02*
X139990000Y-114240000D01*
D19*
X139500000Y-116780000D02*
X143970000Y-116780000D01*
X158660000Y-108660000D02*
X156120000Y-108660000D01*
X159250000Y-109250000D02*
X158660000Y-108660000D01*
X159250000Y-119000000D02*
X159250000Y-109250000D01*
X157750000Y-120500000D02*
X159250000Y-119000000D01*
X146250000Y-120500000D02*
X157750000Y-120500000D01*
X144500000Y-118750000D02*
X146250000Y-120500000D01*
X144500000Y-117310000D02*
X144500000Y-118750000D01*
X143970000Y-116780000D02*
X144500000Y-117310000D01*
X141080000Y-131500000D02*
X141080000Y-132480000D01*
X177700000Y-107700000D02*
X176120000Y-106120000D01*
X180900000Y-107700000D02*
X177700000Y-107700000D01*
X181500000Y-108300000D02*
X180900000Y-107700000D01*
X181500000Y-115900000D02*
X181500000Y-108300000D01*
X175500000Y-121900000D02*
X181500000Y-115900000D01*
X175500000Y-132300000D02*
X175500000Y-121900000D01*
X174100000Y-133700000D02*
X175500000Y-132300000D01*
X142300000Y-133700000D02*
X174100000Y-133700000D01*
X141080000Y-132480000D02*
X142300000Y-133700000D01*
X157740000Y-104500000D02*
X156120000Y-106120000D01*
X159500000Y-104500000D02*
X157740000Y-104500000D01*
X160900000Y-103100000D02*
X159500000Y-104500000D01*
X160900000Y-96700000D02*
X160900000Y-103100000D01*
X158900000Y-94700000D02*
X160900000Y-96700000D01*
X146700000Y-94700000D02*
X158900000Y-94700000D01*
X143900000Y-97500000D02*
X146700000Y-94700000D01*
X143900000Y-110300000D02*
X143900000Y-97500000D01*
D21*
X180000000Y-129000000D02*
X185250000Y-129000000D01*
D22*
G36*
X211373000Y-134373000D02*
X174478597Y-134373000D01*
X174655079Y-134255079D01*
X176055079Y-132855079D01*
X176225245Y-132600407D01*
X176285000Y-132300000D01*
X176285000Y-129195069D01*
X179014830Y-129195069D01*
X179164471Y-129557229D01*
X179441314Y-129834555D01*
X179803212Y-129984828D01*
X180195069Y-129985170D01*
X180316490Y-129935000D01*
X184933213Y-129935000D01*
X185053212Y-129984828D01*
X185445069Y-129985170D01*
X185807229Y-129835529D01*
X186084555Y-129558686D01*
X186234828Y-129196788D01*
X186235170Y-128804931D01*
X186085529Y-128442771D01*
X185808686Y-128165445D01*
X185446788Y-128015172D01*
X185054931Y-128014830D01*
X184933510Y-128065000D01*
X180316787Y-128065000D01*
X180196788Y-128015172D01*
X179804931Y-128014830D01*
X179442771Y-128164471D01*
X179165445Y-128441314D01*
X179015172Y-128803212D01*
X179014830Y-129195069D01*
X176285000Y-129195069D01*
X176285000Y-122225158D01*
X180717466Y-117792692D01*
X180791708Y-117972372D01*
X181026393Y-118207466D01*
X181333179Y-118334855D01*
X181665363Y-118335145D01*
X181972372Y-118208292D01*
X182125060Y-118055869D01*
X182276393Y-118207466D01*
X182583179Y-118334855D01*
X182915363Y-118335145D01*
X183222372Y-118208292D01*
X183457466Y-117973607D01*
X183507822Y-117852336D01*
X184055079Y-117305079D01*
X184225245Y-117050407D01*
X184285000Y-116750000D01*
X184285000Y-105500000D01*
X184245298Y-105300407D01*
X184225245Y-105199593D01*
X184055079Y-104944921D01*
X182135079Y-103024921D01*
X181880407Y-102854755D01*
X181580000Y-102795000D01*
X178752326Y-102795000D01*
X178784811Y-102716767D01*
X178785188Y-102285127D01*
X178735000Y-102163663D01*
X178735000Y-100036725D01*
X178784811Y-99916767D01*
X178785188Y-99485127D01*
X178620354Y-99086200D01*
X178315405Y-98780718D01*
X177916767Y-98615189D01*
X177560262Y-98614878D01*
X177583113Y-98500000D01*
X177473880Y-97950849D01*
X177162811Y-97485302D01*
X176697264Y-97174233D01*
X176148113Y-97065000D01*
X176091887Y-97065000D01*
X175542736Y-97174233D01*
X175077189Y-97485302D01*
X174766120Y-97950849D01*
X174656887Y-98500000D01*
X174766120Y-99049151D01*
X175077189Y-99514698D01*
X175459275Y-99770000D01*
X175077189Y-100025302D01*
X174766120Y-100490849D01*
X174656887Y-101040000D01*
X174715446Y-101334396D01*
X174035000Y-102014842D01*
X174035000Y-97825158D01*
X174825158Y-97035000D01*
X180174842Y-97035000D01*
X180715000Y-97575158D01*
X180715000Y-100000000D01*
X180774755Y-100300407D01*
X180944921Y-100555079D01*
X182234919Y-101845076D01*
X182234921Y-101845079D01*
X182489594Y-102015245D01*
X182790000Y-102075000D01*
X185993750Y-102075000D01*
X186170853Y-102340054D01*
X186500026Y-102560000D01*
X186170853Y-102779946D01*
X185848946Y-103261715D01*
X185735907Y-103830000D01*
X185848946Y-104398285D01*
X186170853Y-104880054D01*
X186500026Y-105100000D01*
X186170853Y-105319946D01*
X185848946Y-105801715D01*
X185735907Y-106370000D01*
X185848946Y-106938285D01*
X186170853Y-107420054D01*
X186500026Y-107640000D01*
X186170853Y-107859946D01*
X185848946Y-108341715D01*
X185735907Y-108910000D01*
X185848946Y-109478285D01*
X186170853Y-109960054D01*
X186500026Y-110180000D01*
X186170853Y-110399946D01*
X185848946Y-110881715D01*
X185735907Y-111450000D01*
X185848946Y-112018285D01*
X186170853Y-112500054D01*
X186500026Y-112720000D01*
X186170853Y-112939946D01*
X185848946Y-113421715D01*
X185735907Y-113990000D01*
X185848946Y-114558285D01*
X186170853Y-115040054D01*
X186500026Y-115260000D01*
X186170853Y-115479946D01*
X185848946Y-115961715D01*
X185735907Y-116530000D01*
X185848946Y-117098285D01*
X186170853Y-117580054D01*
X186652622Y-117901961D01*
X187220907Y-118015000D01*
X187279093Y-118015000D01*
X187847378Y-117901961D01*
X188329147Y-117580054D01*
X188651054Y-117098285D01*
X188764093Y-116530000D01*
X188651054Y-115961715D01*
X188329147Y-115479946D01*
X187999974Y-115260000D01*
X188329147Y-115040054D01*
X188651054Y-114558285D01*
X188764093Y-113990000D01*
X188651054Y-113421715D01*
X188329147Y-112939946D01*
X187999974Y-112720000D01*
X188329147Y-112500054D01*
X188651054Y-112018285D01*
X188764093Y-111450000D01*
X188651054Y-110881715D01*
X188329147Y-110399946D01*
X187999974Y-110180000D01*
X188329147Y-109960054D01*
X188651054Y-109478285D01*
X188764093Y-108910000D01*
X188651054Y-108341715D01*
X188329147Y-107859946D01*
X187999974Y-107640000D01*
X188329147Y-107420054D01*
X188651054Y-106938285D01*
X188764093Y-106370000D01*
X188651054Y-105801715D01*
X188329147Y-105319946D01*
X187999974Y-105100000D01*
X188329147Y-104880054D01*
X188651054Y-104398285D01*
X188764093Y-103830000D01*
X188651054Y-103261715D01*
X188329147Y-102779946D01*
X187999974Y-102560000D01*
X188329147Y-102340054D01*
X188651054Y-101858285D01*
X188764093Y-101290000D01*
X188651054Y-100721715D01*
X188329147Y-100239946D01*
X188287548Y-100212150D01*
X188335317Y-100203162D01*
X188551441Y-100064090D01*
X188696431Y-99851890D01*
X188747440Y-99600000D01*
X188747440Y-97900000D01*
X188703162Y-97664683D01*
X188564090Y-97448559D01*
X188351890Y-97303569D01*
X188100000Y-97252560D01*
X186400000Y-97252560D01*
X186164683Y-97296838D01*
X185948559Y-97435910D01*
X185803569Y-97648110D01*
X185752560Y-97900000D01*
X185752560Y-97965000D01*
X183575158Y-97965000D01*
X183285000Y-97674842D01*
X183285000Y-97250000D01*
X183225245Y-96949594D01*
X183055079Y-96694921D01*
X181305079Y-94944921D01*
X181050407Y-94774755D01*
X180750000Y-94715000D01*
X174000000Y-94715000D01*
X173970081Y-94720951D01*
X173939793Y-94717312D01*
X173820796Y-94750646D01*
X173699594Y-94774755D01*
X173674228Y-94791704D01*
X173644855Y-94799932D01*
X173547677Y-94876262D01*
X173444921Y-94944921D01*
X173427973Y-94970286D01*
X173403983Y-94989129D01*
X172135000Y-96469610D01*
X172135000Y-94236725D01*
X172184811Y-94116767D01*
X172185188Y-93685127D01*
X172020354Y-93286200D01*
X171715405Y-92980718D01*
X171316767Y-92815189D01*
X170885127Y-92814812D01*
X170486200Y-92979646D01*
X170180718Y-93284595D01*
X170015189Y-93683233D01*
X170014812Y-94114873D01*
X170065000Y-94236337D01*
X170065000Y-97163275D01*
X170015189Y-97283233D01*
X170014812Y-97714873D01*
X170179646Y-98113800D01*
X170484595Y-98419282D01*
X170883233Y-98584811D01*
X171314873Y-98585188D01*
X171713800Y-98420354D01*
X171715000Y-98419156D01*
X171715000Y-104924842D01*
X171304842Y-105335000D01*
X169696291Y-105335000D01*
X169542811Y-105105302D01*
X169160725Y-104850000D01*
X169542811Y-104594698D01*
X169853880Y-104129151D01*
X169963113Y-103580000D01*
X169853880Y-103030849D01*
X169542811Y-102565302D01*
X169160725Y-102310000D01*
X169542811Y-102054698D01*
X169853880Y-101589151D01*
X169963113Y-101040000D01*
X169853880Y-100490849D01*
X169542811Y-100025302D01*
X169398535Y-99928899D01*
X169535317Y-99903162D01*
X169751441Y-99764090D01*
X169896431Y-99551890D01*
X169947440Y-99300000D01*
X169947440Y-97700000D01*
X169903162Y-97464683D01*
X169764090Y-97248559D01*
X169551890Y-97103569D01*
X169300000Y-97052560D01*
X167700000Y-97052560D01*
X167464683Y-97096838D01*
X167248559Y-97235910D01*
X167103569Y-97448110D01*
X167052560Y-97700000D01*
X167052560Y-99300000D01*
X167096838Y-99535317D01*
X167235910Y-99751441D01*
X167448110Y-99896431D01*
X167603089Y-99927815D01*
X167457189Y-100025302D01*
X167146120Y-100490849D01*
X167036887Y-101040000D01*
X167146120Y-101589151D01*
X167457189Y-102054698D01*
X167839275Y-102310000D01*
X167457189Y-102565302D01*
X167146120Y-103030849D01*
X167036887Y-103580000D01*
X167146120Y-104129151D01*
X167457189Y-104594698D01*
X167839275Y-104850000D01*
X167457189Y-105105302D01*
X167146120Y-105570849D01*
X167036887Y-106120000D01*
X167146120Y-106669151D01*
X167457189Y-107134698D01*
X167839275Y-107390000D01*
X167457189Y-107645302D01*
X167146120Y-108110849D01*
X167036887Y-108660000D01*
X167146120Y-109209151D01*
X167457189Y-109674698D01*
X167839275Y-109930000D01*
X167457189Y-110185302D01*
X167303709Y-110415000D01*
X166595860Y-110415000D01*
X166473607Y-110292534D01*
X166166821Y-110165145D01*
X165834637Y-110164855D01*
X165527628Y-110291708D01*
X165292534Y-110526393D01*
X165165145Y-110833179D01*
X165164855Y-111165363D01*
X165291708Y-111472372D01*
X165526393Y-111707466D01*
X165651263Y-111759317D01*
X165899594Y-111925245D01*
X166200000Y-111985000D01*
X167303709Y-111985000D01*
X167457189Y-112214698D01*
X167839275Y-112470000D01*
X167457189Y-112725302D01*
X167146120Y-113190849D01*
X167036887Y-113740000D01*
X167146120Y-114289151D01*
X167457189Y-114754698D01*
X167861703Y-115024986D01*
X167644866Y-115127611D01*
X167268959Y-115542577D01*
X167108096Y-115930961D01*
X167230085Y-116153000D01*
X168373000Y-116153000D01*
X168373000Y-116133000D01*
X168627000Y-116133000D01*
X168627000Y-116153000D01*
X169769915Y-116153000D01*
X169891904Y-115930961D01*
X169731041Y-115542577D01*
X169355134Y-115127611D01*
X169138297Y-115024986D01*
X169542811Y-114754698D01*
X169853880Y-114289151D01*
X169963113Y-113740000D01*
X169853880Y-113190849D01*
X169542811Y-112725302D01*
X169160725Y-112470000D01*
X169542811Y-112214698D01*
X169853880Y-111749151D01*
X169963113Y-111200000D01*
X169853880Y-110650849D01*
X169542811Y-110185302D01*
X169160725Y-109930000D01*
X169542811Y-109674698D01*
X169696291Y-109445000D01*
X172090000Y-109445000D01*
X172390407Y-109385245D01*
X172645079Y-109215079D01*
X173115000Y-108745158D01*
X173115000Y-117174842D01*
X172974842Y-117315000D01*
X169461474Y-117315000D01*
X169731041Y-117017423D01*
X169891904Y-116629039D01*
X169769915Y-116407000D01*
X168627000Y-116407000D01*
X168627000Y-116427000D01*
X168373000Y-116427000D01*
X168373000Y-116407000D01*
X167230085Y-116407000D01*
X167108096Y-116629039D01*
X167268959Y-117017423D01*
X167538526Y-117315000D01*
X167325158Y-117315000D01*
X166757937Y-116747779D01*
X166708292Y-116627628D01*
X166473607Y-116392534D01*
X166166821Y-116265145D01*
X165834637Y-116264855D01*
X165527628Y-116391708D01*
X165292534Y-116626393D01*
X165174781Y-116909974D01*
X165066821Y-116865145D01*
X164734637Y-116864855D01*
X164427628Y-116991708D01*
X164192534Y-117226393D01*
X164065145Y-117533179D01*
X164064855Y-117865363D01*
X164191708Y-118172372D01*
X164426393Y-118407466D01*
X164547664Y-118457822D01*
X165544921Y-119455079D01*
X165799593Y-119625245D01*
X166100000Y-119685000D01*
X173700000Y-119685000D01*
X174000407Y-119625245D01*
X174255079Y-119455079D01*
X175255079Y-118455079D01*
X175425245Y-118200406D01*
X175485001Y-117900000D01*
X175485000Y-117899995D01*
X175485000Y-117567189D01*
X175542736Y-117605767D01*
X176091887Y-117715000D01*
X176148113Y-117715000D01*
X176697264Y-117605767D01*
X177162811Y-117294698D01*
X177316291Y-117065000D01*
X177720000Y-117065000D01*
X178020407Y-117005245D01*
X178275079Y-116835079D01*
X180555079Y-114555079D01*
X180715000Y-114315739D01*
X180715000Y-115574842D01*
X174944921Y-121344921D01*
X174774755Y-121599593D01*
X174741228Y-121768144D01*
X174715000Y-121900000D01*
X174715000Y-131974842D01*
X173774842Y-132915000D01*
X172000813Y-132915000D01*
X172346924Y-132771645D01*
X172775183Y-132381358D01*
X173021486Y-131856892D01*
X172900819Y-131627000D01*
X171707000Y-131627000D01*
X171707000Y-131647000D01*
X171453000Y-131647000D01*
X171453000Y-131627000D01*
X171433000Y-131627000D01*
X171433000Y-131373000D01*
X171453000Y-131373000D01*
X171453000Y-130179845D01*
X171707000Y-130179845D01*
X171707000Y-131373000D01*
X172900819Y-131373000D01*
X173021486Y-131143108D01*
X172775183Y-130618642D01*
X172346924Y-130228355D01*
X171936890Y-130058524D01*
X171707000Y-130179845D01*
X171453000Y-130179845D01*
X171223110Y-130058524D01*
X170813076Y-130228355D01*
X170384817Y-130618642D01*
X170317702Y-130761553D01*
X170090054Y-130420853D01*
X169608285Y-130098946D01*
X169040000Y-129985907D01*
X168471715Y-130098946D01*
X167989946Y-130420853D01*
X167962150Y-130462452D01*
X167953162Y-130414683D01*
X167814090Y-130198559D01*
X167601890Y-130053569D01*
X167535000Y-130040023D01*
X167535000Y-128462630D01*
X167585317Y-128453162D01*
X167801441Y-128314090D01*
X167946431Y-128101890D01*
X167960086Y-128034459D01*
X167989946Y-128079147D01*
X168471715Y-128401054D01*
X169040000Y-128514093D01*
X169608285Y-128401054D01*
X170090054Y-128079147D01*
X170317702Y-127738447D01*
X170384817Y-127881358D01*
X170813076Y-128271645D01*
X171223110Y-128441476D01*
X171453000Y-128320155D01*
X171453000Y-127127000D01*
X171707000Y-127127000D01*
X171707000Y-128320155D01*
X171936890Y-128441476D01*
X172346924Y-128271645D01*
X172775183Y-127881358D01*
X173021486Y-127356892D01*
X172900819Y-127127000D01*
X171707000Y-127127000D01*
X171453000Y-127127000D01*
X171433000Y-127127000D01*
X171433000Y-126873000D01*
X171453000Y-126873000D01*
X171453000Y-125679845D01*
X171707000Y-125679845D01*
X171707000Y-126873000D01*
X172900819Y-126873000D01*
X173021486Y-126643108D01*
X172775183Y-126118642D01*
X172346924Y-125728355D01*
X171936890Y-125558524D01*
X171707000Y-125679845D01*
X171453000Y-125679845D01*
X171223110Y-125558524D01*
X170813076Y-125728355D01*
X170384817Y-126118642D01*
X170317702Y-126261553D01*
X170090054Y-125920853D01*
X169608285Y-125598946D01*
X169040000Y-125485907D01*
X168471715Y-125598946D01*
X167989946Y-125920853D01*
X167962150Y-125962452D01*
X167953162Y-125914683D01*
X167814090Y-125698559D01*
X167601890Y-125553569D01*
X167535000Y-125540023D01*
X167535000Y-123962630D01*
X167585317Y-123953162D01*
X167801441Y-123814090D01*
X167946431Y-123601890D01*
X167960086Y-123534459D01*
X167989946Y-123579147D01*
X168471715Y-123901054D01*
X169040000Y-124014093D01*
X169608285Y-123901054D01*
X170090054Y-123579147D01*
X170317702Y-123238447D01*
X170384817Y-123381358D01*
X170813076Y-123771645D01*
X171223110Y-123941476D01*
X171453000Y-123820155D01*
X171453000Y-122627000D01*
X171707000Y-122627000D01*
X171707000Y-123820155D01*
X171936890Y-123941476D01*
X172346924Y-123771645D01*
X172775183Y-123381358D01*
X173021486Y-122856892D01*
X172900819Y-122627000D01*
X171707000Y-122627000D01*
X171453000Y-122627000D01*
X171433000Y-122627000D01*
X171433000Y-122373000D01*
X171453000Y-122373000D01*
X171453000Y-121179845D01*
X171707000Y-121179845D01*
X171707000Y-122373000D01*
X172900819Y-122373000D01*
X173021486Y-122143108D01*
X172775183Y-121618642D01*
X172346924Y-121228355D01*
X171936890Y-121058524D01*
X171707000Y-121179845D01*
X171453000Y-121179845D01*
X171223110Y-121058524D01*
X170813076Y-121228355D01*
X170384817Y-121618642D01*
X170317702Y-121761553D01*
X170090054Y-121420853D01*
X169608285Y-121098946D01*
X169040000Y-120985907D01*
X168471715Y-121098946D01*
X167989946Y-121420853D01*
X167962150Y-121462452D01*
X167953162Y-121414683D01*
X167814090Y-121198559D01*
X167601890Y-121053569D01*
X167350000Y-121002560D01*
X165650000Y-121002560D01*
X165414683Y-121046838D01*
X165198559Y-121185910D01*
X165053569Y-121398110D01*
X165002560Y-121650000D01*
X165002560Y-123350000D01*
X165046838Y-123585317D01*
X165185910Y-123801441D01*
X165398110Y-123946431D01*
X165465000Y-123959977D01*
X165465000Y-125537370D01*
X165414683Y-125546838D01*
X165198559Y-125685910D01*
X165053569Y-125898110D01*
X165002560Y-126150000D01*
X165002560Y-127850000D01*
X165046838Y-128085317D01*
X165185910Y-128301441D01*
X165398110Y-128446431D01*
X165465000Y-128459977D01*
X165465000Y-130037370D01*
X165414683Y-130046838D01*
X165198559Y-130185910D01*
X165053569Y-130398110D01*
X165002560Y-130650000D01*
X165002560Y-132350000D01*
X165046838Y-132585317D01*
X165185910Y-132801441D01*
X165352109Y-132915000D01*
X159500813Y-132915000D01*
X159846924Y-132771645D01*
X160275183Y-132381358D01*
X160521486Y-131856892D01*
X160400819Y-131627000D01*
X159207000Y-131627000D01*
X159207000Y-131647000D01*
X158953000Y-131647000D01*
X158953000Y-131627000D01*
X158933000Y-131627000D01*
X158933000Y-131373000D01*
X158953000Y-131373000D01*
X158953000Y-130179845D01*
X159207000Y-130179845D01*
X159207000Y-131373000D01*
X160400819Y-131373000D01*
X160521486Y-131143108D01*
X160275183Y-130618642D01*
X159846924Y-130228355D01*
X159436890Y-130058524D01*
X159207000Y-130179845D01*
X158953000Y-130179845D01*
X158723110Y-130058524D01*
X158313076Y-130228355D01*
X157884817Y-130618642D01*
X157817702Y-130761553D01*
X157590054Y-130420853D01*
X157108285Y-130098946D01*
X156540000Y-129985907D01*
X155971715Y-130098946D01*
X155489946Y-130420853D01*
X155462150Y-130462452D01*
X155453162Y-130414683D01*
X155314090Y-130198559D01*
X155101890Y-130053569D01*
X155035000Y-130040023D01*
X155035000Y-128462630D01*
X155085317Y-128453162D01*
X155301441Y-128314090D01*
X155446431Y-128101890D01*
X155460086Y-128034459D01*
X155489946Y-128079147D01*
X155971715Y-128401054D01*
X156540000Y-128514093D01*
X157108285Y-128401054D01*
X157590054Y-128079147D01*
X157817702Y-127738447D01*
X157884817Y-127881358D01*
X158313076Y-128271645D01*
X158723110Y-128441476D01*
X158953000Y-128320155D01*
X158953000Y-127127000D01*
X159207000Y-127127000D01*
X159207000Y-128320155D01*
X159436890Y-128441476D01*
X159846924Y-128271645D01*
X160275183Y-127881358D01*
X160521486Y-127356892D01*
X160400819Y-127127000D01*
X159207000Y-127127000D01*
X158953000Y-127127000D01*
X158933000Y-127127000D01*
X158933000Y-126873000D01*
X158953000Y-126873000D01*
X158953000Y-125679845D01*
X159207000Y-125679845D01*
X159207000Y-126873000D01*
X160400819Y-126873000D01*
X160521486Y-126643108D01*
X160275183Y-126118642D01*
X159846924Y-125728355D01*
X159436890Y-125558524D01*
X159207000Y-125679845D01*
X158953000Y-125679845D01*
X158723110Y-125558524D01*
X158313076Y-125728355D01*
X157884817Y-126118642D01*
X157817702Y-126261553D01*
X157590054Y-125920853D01*
X157108285Y-125598946D01*
X156540000Y-125485907D01*
X155971715Y-125598946D01*
X155489946Y-125920853D01*
X155462150Y-125962452D01*
X155453162Y-125914683D01*
X155314090Y-125698559D01*
X155101890Y-125553569D01*
X155035000Y-125540023D01*
X155035000Y-123962630D01*
X155085317Y-123953162D01*
X155301441Y-123814090D01*
X155446431Y-123601890D01*
X155460086Y-123534459D01*
X155489946Y-123579147D01*
X155971715Y-123901054D01*
X156540000Y-124014093D01*
X157108285Y-123901054D01*
X157590054Y-123579147D01*
X157817702Y-123238447D01*
X157884817Y-123381358D01*
X158313076Y-123771645D01*
X158723110Y-123941476D01*
X158953000Y-123820155D01*
X158953000Y-122627000D01*
X159207000Y-122627000D01*
X159207000Y-123820155D01*
X159436890Y-123941476D01*
X159846924Y-123771645D01*
X160275183Y-123381358D01*
X160521486Y-122856892D01*
X160400819Y-122627000D01*
X159207000Y-122627000D01*
X158953000Y-122627000D01*
X158933000Y-122627000D01*
X158933000Y-122373000D01*
X158953000Y-122373000D01*
X158953000Y-121179845D01*
X159207000Y-121179845D01*
X159207000Y-122373000D01*
X160400819Y-122373000D01*
X160521486Y-122143108D01*
X160275183Y-121618642D01*
X159846924Y-121228355D01*
X159436890Y-121058524D01*
X159207000Y-121179845D01*
X158953000Y-121179845D01*
X158723110Y-121058524D01*
X158313076Y-121228355D01*
X157884817Y-121618642D01*
X157817702Y-121761553D01*
X157590054Y-121420853D01*
X157386735Y-121285000D01*
X157750000Y-121285000D01*
X158050407Y-121225245D01*
X158305079Y-121055079D01*
X159805079Y-119555079D01*
X159975245Y-119300407D01*
X160035000Y-119000000D01*
X160035000Y-109250000D01*
X159990293Y-109025245D01*
X159975245Y-108949593D01*
X159805079Y-108694921D01*
X159215079Y-108104921D01*
X158960407Y-107934755D01*
X158660000Y-107875000D01*
X157316291Y-107875000D01*
X157162811Y-107645302D01*
X156780725Y-107390000D01*
X157162811Y-107134698D01*
X157473880Y-106669151D01*
X157583113Y-106120000D01*
X157524554Y-105825604D01*
X158065158Y-105285000D01*
X159500000Y-105285000D01*
X159800407Y-105225245D01*
X160055079Y-105055079D01*
X161455079Y-103655079D01*
X161625245Y-103400407D01*
X161685000Y-103100000D01*
X161685000Y-96700000D01*
X161625245Y-96399594D01*
X161625245Y-96399593D01*
X161455079Y-96144921D01*
X159455079Y-94144921D01*
X159200407Y-93974755D01*
X158900000Y-93915000D01*
X146700000Y-93915000D01*
X146399593Y-93974755D01*
X146144921Y-94144921D01*
X143344921Y-96944921D01*
X143174755Y-97199593D01*
X143145847Y-97344921D01*
X143115000Y-97500000D01*
X143115000Y-109254842D01*
X142465079Y-108604921D01*
X142210407Y-108434755D01*
X141910000Y-108375000D01*
X140756250Y-108375000D01*
X140579147Y-108109946D01*
X140249974Y-107890000D01*
X140579147Y-107670054D01*
X140901054Y-107188285D01*
X141014093Y-106620000D01*
X140901054Y-106051715D01*
X140579147Y-105569946D01*
X140249974Y-105350000D01*
X140579147Y-105130054D01*
X140901054Y-104648285D01*
X141014093Y-104080000D01*
X140901054Y-103511715D01*
X140579147Y-103029946D01*
X140249974Y-102810000D01*
X140579147Y-102590054D01*
X140901054Y-102108285D01*
X141014093Y-101540000D01*
X140901054Y-100971715D01*
X140579147Y-100489946D01*
X140537548Y-100462150D01*
X140585317Y-100453162D01*
X140801441Y-100314090D01*
X140946431Y-100101890D01*
X140997440Y-99850000D01*
X140997440Y-98150000D01*
X140953162Y-97914683D01*
X140814090Y-97698559D01*
X140601890Y-97553569D01*
X140350000Y-97502560D01*
X138650000Y-97502560D01*
X138414683Y-97546838D01*
X138198559Y-97685910D01*
X138053569Y-97898110D01*
X138002560Y-98150000D01*
X138002560Y-99850000D01*
X138046838Y-100085317D01*
X138185910Y-100301441D01*
X138398110Y-100446431D01*
X138465541Y-100460086D01*
X138420853Y-100489946D01*
X138098946Y-100971715D01*
X137985907Y-101540000D01*
X138098946Y-102108285D01*
X138420853Y-102590054D01*
X138750026Y-102810000D01*
X138420853Y-103029946D01*
X138098946Y-103511715D01*
X137985907Y-104080000D01*
X138098946Y-104648285D01*
X138420853Y-105130054D01*
X138750026Y-105350000D01*
X138420853Y-105569946D01*
X138098946Y-106051715D01*
X137985907Y-106620000D01*
X138098946Y-107188285D01*
X138420853Y-107670054D01*
X138750026Y-107890000D01*
X138420853Y-108109946D01*
X138098946Y-108591715D01*
X137985907Y-109160000D01*
X138098946Y-109728285D01*
X138420853Y-110210054D01*
X138750026Y-110430000D01*
X138420853Y-110649946D01*
X138098946Y-111131715D01*
X137985907Y-111700000D01*
X138098946Y-112268285D01*
X138420853Y-112750054D01*
X138750026Y-112970000D01*
X138420853Y-113189946D01*
X138098946Y-113671715D01*
X137985907Y-114240000D01*
X138098946Y-114808285D01*
X138420853Y-115290054D01*
X138750026Y-115510000D01*
X138420853Y-115729946D01*
X138098946Y-116211715D01*
X137985907Y-116780000D01*
X138098946Y-117348285D01*
X138420853Y-117830054D01*
X138902622Y-118151961D01*
X139470907Y-118265000D01*
X139529093Y-118265000D01*
X140097378Y-118151961D01*
X140579147Y-117830054D01*
X140756250Y-117565000D01*
X143644842Y-117565000D01*
X143715000Y-117635158D01*
X143715000Y-118750000D01*
X143774755Y-119050407D01*
X143944921Y-119305079D01*
X145694921Y-121055079D01*
X145949594Y-121225245D01*
X146250000Y-121285000D01*
X152630854Y-121285000D01*
X152553569Y-121398110D01*
X152502560Y-121650000D01*
X152502560Y-123350000D01*
X152546838Y-123585317D01*
X152685910Y-123801441D01*
X152898110Y-123946431D01*
X152965000Y-123959977D01*
X152965000Y-125537370D01*
X152914683Y-125546838D01*
X152698559Y-125685910D01*
X152553569Y-125898110D01*
X152502560Y-126150000D01*
X152502560Y-127850000D01*
X152546838Y-128085317D01*
X152685910Y-128301441D01*
X152898110Y-128446431D01*
X152965000Y-128459977D01*
X152965000Y-130037370D01*
X152914683Y-130046838D01*
X152698559Y-130185910D01*
X152553569Y-130398110D01*
X152502560Y-130650000D01*
X152502560Y-132350000D01*
X152546838Y-132585317D01*
X152685910Y-132801441D01*
X152852109Y-132915000D01*
X146580813Y-132915000D01*
X146926924Y-132771645D01*
X147355183Y-132381358D01*
X147601486Y-131856892D01*
X147480819Y-131627000D01*
X146287000Y-131627000D01*
X146287000Y-131647000D01*
X146033000Y-131647000D01*
X146033000Y-131627000D01*
X146013000Y-131627000D01*
X146013000Y-131373000D01*
X146033000Y-131373000D01*
X146033000Y-131353000D01*
X146287000Y-131353000D01*
X146287000Y-131373000D01*
X147480819Y-131373000D01*
X147601486Y-131143108D01*
X147355183Y-130618642D01*
X146926924Y-130228355D01*
X146926899Y-130228345D01*
X147210054Y-130039147D01*
X147531961Y-129557378D01*
X147645000Y-128989093D01*
X147645000Y-128930907D01*
X147531961Y-128362622D01*
X147210054Y-127880853D01*
X146991769Y-127735000D01*
X149363275Y-127735000D01*
X149483233Y-127784811D01*
X149914873Y-127785188D01*
X150313800Y-127620354D01*
X150619282Y-127315405D01*
X150784811Y-126916767D01*
X150785188Y-126485127D01*
X150620354Y-126086200D01*
X150315405Y-125780718D01*
X149916767Y-125615189D01*
X149485127Y-125614812D01*
X149363663Y-125665000D01*
X146636725Y-125665000D01*
X146516767Y-125615189D01*
X146085127Y-125614812D01*
X145686200Y-125779646D01*
X145380718Y-126084595D01*
X145215189Y-126483233D01*
X145214812Y-126914873D01*
X145379646Y-127313800D01*
X145618955Y-127553528D01*
X145591715Y-127558946D01*
X145109946Y-127880853D01*
X144890000Y-128210026D01*
X144670054Y-127880853D01*
X144188285Y-127558946D01*
X143620000Y-127445907D01*
X143051715Y-127558946D01*
X142569946Y-127880853D01*
X142350000Y-128210026D01*
X142130054Y-127880853D01*
X141648285Y-127558946D01*
X141080000Y-127445907D01*
X140511715Y-127558946D01*
X140029946Y-127880853D01*
X139810000Y-128210026D01*
X139590054Y-127880853D01*
X139108285Y-127558946D01*
X138540000Y-127445907D01*
X137971715Y-127558946D01*
X137489946Y-127880853D01*
X137270000Y-128210026D01*
X137050054Y-127880853D01*
X136568285Y-127558946D01*
X136000000Y-127445907D01*
X135431715Y-127558946D01*
X134949946Y-127880853D01*
X134628039Y-128362622D01*
X134515000Y-128930907D01*
X134515000Y-128989093D01*
X134628039Y-129557378D01*
X134949946Y-130039147D01*
X134951179Y-130039971D01*
X134914683Y-130046838D01*
X134698559Y-130185910D01*
X134553569Y-130398110D01*
X134502560Y-130650000D01*
X134502560Y-132350000D01*
X134546838Y-132585317D01*
X134685910Y-132801441D01*
X134898110Y-132946431D01*
X135150000Y-132997440D01*
X136850000Y-132997440D01*
X137085317Y-132953162D01*
X137301441Y-132814090D01*
X137446431Y-132601890D01*
X137460086Y-132534459D01*
X137489946Y-132579147D01*
X137971715Y-132901054D01*
X138540000Y-133014093D01*
X139108285Y-132901054D01*
X139590054Y-132579147D01*
X139810000Y-132249974D01*
X140029946Y-132579147D01*
X140373791Y-132808896D01*
X140524921Y-133035079D01*
X141744921Y-134255079D01*
X141921403Y-134373000D01*
X114627000Y-134373000D01*
X114627000Y-86627000D01*
X211373000Y-86627000D01*
X211373000Y-134373000D01*
X211373000Y-134373000D01*
G37*
X211373000Y-134373000D02*
X174478597Y-134373000D01*
X174655079Y-134255079D01*
X176055079Y-132855079D01*
X176225245Y-132600407D01*
X176285000Y-132300000D01*
X176285000Y-129195069D01*
X179014830Y-129195069D01*
X179164471Y-129557229D01*
X179441314Y-129834555D01*
X179803212Y-129984828D01*
X180195069Y-129985170D01*
X180316490Y-129935000D01*
X184933213Y-129935000D01*
X185053212Y-129984828D01*
X185445069Y-129985170D01*
X185807229Y-129835529D01*
X186084555Y-129558686D01*
X186234828Y-129196788D01*
X186235170Y-128804931D01*
X186085529Y-128442771D01*
X185808686Y-128165445D01*
X185446788Y-128015172D01*
X185054931Y-128014830D01*
X184933510Y-128065000D01*
X180316787Y-128065000D01*
X180196788Y-128015172D01*
X179804931Y-128014830D01*
X179442771Y-128164471D01*
X179165445Y-128441314D01*
X179015172Y-128803212D01*
X179014830Y-129195069D01*
X176285000Y-129195069D01*
X176285000Y-122225158D01*
X180717466Y-117792692D01*
X180791708Y-117972372D01*
X181026393Y-118207466D01*
X181333179Y-118334855D01*
X181665363Y-118335145D01*
X181972372Y-118208292D01*
X182125060Y-118055869D01*
X182276393Y-118207466D01*
X182583179Y-118334855D01*
X182915363Y-118335145D01*
X183222372Y-118208292D01*
X183457466Y-117973607D01*
X183507822Y-117852336D01*
X184055079Y-117305079D01*
X184225245Y-117050407D01*
X184285000Y-116750000D01*
X184285000Y-105500000D01*
X184245298Y-105300407D01*
X184225245Y-105199593D01*
X184055079Y-104944921D01*
X182135079Y-103024921D01*
X181880407Y-102854755D01*
X181580000Y-102795000D01*
X178752326Y-102795000D01*
X178784811Y-102716767D01*
X178785188Y-102285127D01*
X178735000Y-102163663D01*
X178735000Y-100036725D01*
X178784811Y-99916767D01*
X178785188Y-99485127D01*
X178620354Y-99086200D01*
X178315405Y-98780718D01*
X177916767Y-98615189D01*
X177560262Y-98614878D01*
X177583113Y-98500000D01*
X177473880Y-97950849D01*
X177162811Y-97485302D01*
X176697264Y-97174233D01*
X176148113Y-97065000D01*
X176091887Y-97065000D01*
X175542736Y-97174233D01*
X175077189Y-97485302D01*
X174766120Y-97950849D01*
X174656887Y-98500000D01*
X174766120Y-99049151D01*
X175077189Y-99514698D01*
X175459275Y-99770000D01*
X175077189Y-100025302D01*
X174766120Y-100490849D01*
X174656887Y-101040000D01*
X174715446Y-101334396D01*
X174035000Y-102014842D01*
X174035000Y-97825158D01*
X174825158Y-97035000D01*
X180174842Y-97035000D01*
X180715000Y-97575158D01*
X180715000Y-100000000D01*
X180774755Y-100300407D01*
X180944921Y-100555079D01*
X182234919Y-101845076D01*
X182234921Y-101845079D01*
X182489594Y-102015245D01*
X182790000Y-102075000D01*
X185993750Y-102075000D01*
X186170853Y-102340054D01*
X186500026Y-102560000D01*
X186170853Y-102779946D01*
X185848946Y-103261715D01*
X185735907Y-103830000D01*
X185848946Y-104398285D01*
X186170853Y-104880054D01*
X186500026Y-105100000D01*
X186170853Y-105319946D01*
X185848946Y-105801715D01*
X185735907Y-106370000D01*
X185848946Y-106938285D01*
X186170853Y-107420054D01*
X186500026Y-107640000D01*
X186170853Y-107859946D01*
X185848946Y-108341715D01*
X185735907Y-108910000D01*
X185848946Y-109478285D01*
X186170853Y-109960054D01*
X186500026Y-110180000D01*
X186170853Y-110399946D01*
X185848946Y-110881715D01*
X185735907Y-111450000D01*
X185848946Y-112018285D01*
X186170853Y-112500054D01*
X186500026Y-112720000D01*
X186170853Y-112939946D01*
X185848946Y-113421715D01*
X185735907Y-113990000D01*
X185848946Y-114558285D01*
X186170853Y-115040054D01*
X186500026Y-115260000D01*
X186170853Y-115479946D01*
X185848946Y-115961715D01*
X185735907Y-116530000D01*
X185848946Y-117098285D01*
X186170853Y-117580054D01*
X186652622Y-117901961D01*
X187220907Y-118015000D01*
X187279093Y-118015000D01*
X187847378Y-117901961D01*
X188329147Y-117580054D01*
X188651054Y-117098285D01*
X188764093Y-116530000D01*
X188651054Y-115961715D01*
X188329147Y-115479946D01*
X187999974Y-115260000D01*
X188329147Y-115040054D01*
X188651054Y-114558285D01*
X188764093Y-113990000D01*
X188651054Y-113421715D01*
X188329147Y-112939946D01*
X187999974Y-112720000D01*
X188329147Y-112500054D01*
X188651054Y-112018285D01*
X188764093Y-111450000D01*
X188651054Y-110881715D01*
X188329147Y-110399946D01*
X187999974Y-110180000D01*
X188329147Y-109960054D01*
X188651054Y-109478285D01*
X188764093Y-108910000D01*
X188651054Y-108341715D01*
X188329147Y-107859946D01*
X187999974Y-107640000D01*
X188329147Y-107420054D01*
X188651054Y-106938285D01*
X188764093Y-106370000D01*
X188651054Y-105801715D01*
X188329147Y-105319946D01*
X187999974Y-105100000D01*
X188329147Y-104880054D01*
X188651054Y-104398285D01*
X188764093Y-103830000D01*
X188651054Y-103261715D01*
X188329147Y-102779946D01*
X187999974Y-102560000D01*
X188329147Y-102340054D01*
X188651054Y-101858285D01*
X188764093Y-101290000D01*
X188651054Y-100721715D01*
X188329147Y-100239946D01*
X188287548Y-100212150D01*
X188335317Y-100203162D01*
X188551441Y-100064090D01*
X188696431Y-99851890D01*
X188747440Y-99600000D01*
X188747440Y-97900000D01*
X188703162Y-97664683D01*
X188564090Y-97448559D01*
X188351890Y-97303569D01*
X188100000Y-97252560D01*
X186400000Y-97252560D01*
X186164683Y-97296838D01*
X185948559Y-97435910D01*
X185803569Y-97648110D01*
X185752560Y-97900000D01*
X185752560Y-97965000D01*
X183575158Y-97965000D01*
X183285000Y-97674842D01*
X183285000Y-97250000D01*
X183225245Y-96949594D01*
X183055079Y-96694921D01*
X181305079Y-94944921D01*
X181050407Y-94774755D01*
X180750000Y-94715000D01*
X174000000Y-94715000D01*
X173970081Y-94720951D01*
X173939793Y-94717312D01*
X173820796Y-94750646D01*
X173699594Y-94774755D01*
X173674228Y-94791704D01*
X173644855Y-94799932D01*
X173547677Y-94876262D01*
X173444921Y-94944921D01*
X173427973Y-94970286D01*
X173403983Y-94989129D01*
X172135000Y-96469610D01*
X172135000Y-94236725D01*
X172184811Y-94116767D01*
X172185188Y-93685127D01*
X172020354Y-93286200D01*
X171715405Y-92980718D01*
X171316767Y-92815189D01*
X170885127Y-92814812D01*
X170486200Y-92979646D01*
X170180718Y-93284595D01*
X170015189Y-93683233D01*
X170014812Y-94114873D01*
X170065000Y-94236337D01*
X170065000Y-97163275D01*
X170015189Y-97283233D01*
X170014812Y-97714873D01*
X170179646Y-98113800D01*
X170484595Y-98419282D01*
X170883233Y-98584811D01*
X171314873Y-98585188D01*
X171713800Y-98420354D01*
X171715000Y-98419156D01*
X171715000Y-104924842D01*
X171304842Y-105335000D01*
X169696291Y-105335000D01*
X169542811Y-105105302D01*
X169160725Y-104850000D01*
X169542811Y-104594698D01*
X169853880Y-104129151D01*
X169963113Y-103580000D01*
X169853880Y-103030849D01*
X169542811Y-102565302D01*
X169160725Y-102310000D01*
X169542811Y-102054698D01*
X169853880Y-101589151D01*
X169963113Y-101040000D01*
X169853880Y-100490849D01*
X169542811Y-100025302D01*
X169398535Y-99928899D01*
X169535317Y-99903162D01*
X169751441Y-99764090D01*
X169896431Y-99551890D01*
X169947440Y-99300000D01*
X169947440Y-97700000D01*
X169903162Y-97464683D01*
X169764090Y-97248559D01*
X169551890Y-97103569D01*
X169300000Y-97052560D01*
X167700000Y-97052560D01*
X167464683Y-97096838D01*
X167248559Y-97235910D01*
X167103569Y-97448110D01*
X167052560Y-97700000D01*
X167052560Y-99300000D01*
X167096838Y-99535317D01*
X167235910Y-99751441D01*
X167448110Y-99896431D01*
X167603089Y-99927815D01*
X167457189Y-100025302D01*
X167146120Y-100490849D01*
X167036887Y-101040000D01*
X167146120Y-101589151D01*
X167457189Y-102054698D01*
X167839275Y-102310000D01*
X167457189Y-102565302D01*
X167146120Y-103030849D01*
X167036887Y-103580000D01*
X167146120Y-104129151D01*
X167457189Y-104594698D01*
X167839275Y-104850000D01*
X167457189Y-105105302D01*
X167146120Y-105570849D01*
X167036887Y-106120000D01*
X167146120Y-106669151D01*
X167457189Y-107134698D01*
X167839275Y-107390000D01*
X167457189Y-107645302D01*
X167146120Y-108110849D01*
X167036887Y-108660000D01*
X167146120Y-109209151D01*
X167457189Y-109674698D01*
X167839275Y-109930000D01*
X167457189Y-110185302D01*
X167303709Y-110415000D01*
X166595860Y-110415000D01*
X166473607Y-110292534D01*
X166166821Y-110165145D01*
X165834637Y-110164855D01*
X165527628Y-110291708D01*
X165292534Y-110526393D01*
X165165145Y-110833179D01*
X165164855Y-111165363D01*
X165291708Y-111472372D01*
X165526393Y-111707466D01*
X165651263Y-111759317D01*
X165899594Y-111925245D01*
X166200000Y-111985000D01*
X167303709Y-111985000D01*
X167457189Y-112214698D01*
X167839275Y-112470000D01*
X167457189Y-112725302D01*
X167146120Y-113190849D01*
X167036887Y-113740000D01*
X167146120Y-114289151D01*
X167457189Y-114754698D01*
X167861703Y-115024986D01*
X167644866Y-115127611D01*
X167268959Y-115542577D01*
X167108096Y-115930961D01*
X167230085Y-116153000D01*
X168373000Y-116153000D01*
X168373000Y-116133000D01*
X168627000Y-116133000D01*
X168627000Y-116153000D01*
X169769915Y-116153000D01*
X169891904Y-115930961D01*
X169731041Y-115542577D01*
X169355134Y-115127611D01*
X169138297Y-115024986D01*
X169542811Y-114754698D01*
X169853880Y-114289151D01*
X169963113Y-113740000D01*
X169853880Y-113190849D01*
X169542811Y-112725302D01*
X169160725Y-112470000D01*
X169542811Y-112214698D01*
X169853880Y-111749151D01*
X169963113Y-111200000D01*
X169853880Y-110650849D01*
X169542811Y-110185302D01*
X169160725Y-109930000D01*
X169542811Y-109674698D01*
X169696291Y-109445000D01*
X172090000Y-109445000D01*
X172390407Y-109385245D01*
X172645079Y-109215079D01*
X173115000Y-108745158D01*
X173115000Y-117174842D01*
X172974842Y-117315000D01*
X169461474Y-117315000D01*
X169731041Y-117017423D01*
X169891904Y-116629039D01*
X169769915Y-116407000D01*
X168627000Y-116407000D01*
X168627000Y-116427000D01*
X168373000Y-116427000D01*
X168373000Y-116407000D01*
X167230085Y-116407000D01*
X167108096Y-116629039D01*
X167268959Y-117017423D01*
X167538526Y-117315000D01*
X167325158Y-117315000D01*
X166757937Y-116747779D01*
X166708292Y-116627628D01*
X166473607Y-116392534D01*
X166166821Y-116265145D01*
X165834637Y-116264855D01*
X165527628Y-116391708D01*
X165292534Y-116626393D01*
X165174781Y-116909974D01*
X165066821Y-116865145D01*
X164734637Y-116864855D01*
X164427628Y-116991708D01*
X164192534Y-117226393D01*
X164065145Y-117533179D01*
X164064855Y-117865363D01*
X164191708Y-118172372D01*
X164426393Y-118407466D01*
X164547664Y-118457822D01*
X165544921Y-119455079D01*
X165799593Y-119625245D01*
X166100000Y-119685000D01*
X173700000Y-119685000D01*
X174000407Y-119625245D01*
X174255079Y-119455079D01*
X175255079Y-118455079D01*
X175425245Y-118200406D01*
X175485001Y-117900000D01*
X175485000Y-117899995D01*
X175485000Y-117567189D01*
X175542736Y-117605767D01*
X176091887Y-117715000D01*
X176148113Y-117715000D01*
X176697264Y-117605767D01*
X177162811Y-117294698D01*
X177316291Y-117065000D01*
X177720000Y-117065000D01*
X178020407Y-117005245D01*
X178275079Y-116835079D01*
X180555079Y-114555079D01*
X180715000Y-114315739D01*
X180715000Y-115574842D01*
X174944921Y-121344921D01*
X174774755Y-121599593D01*
X174741228Y-121768144D01*
X174715000Y-121900000D01*
X174715000Y-131974842D01*
X173774842Y-132915000D01*
X172000813Y-132915000D01*
X172346924Y-132771645D01*
X172775183Y-132381358D01*
X173021486Y-131856892D01*
X172900819Y-131627000D01*
X171707000Y-131627000D01*
X171707000Y-131647000D01*
X171453000Y-131647000D01*
X171453000Y-131627000D01*
X171433000Y-131627000D01*
X171433000Y-131373000D01*
X171453000Y-131373000D01*
X171453000Y-130179845D01*
X171707000Y-130179845D01*
X171707000Y-131373000D01*
X172900819Y-131373000D01*
X173021486Y-131143108D01*
X172775183Y-130618642D01*
X172346924Y-130228355D01*
X171936890Y-130058524D01*
X171707000Y-130179845D01*
X171453000Y-130179845D01*
X171223110Y-130058524D01*
X170813076Y-130228355D01*
X170384817Y-130618642D01*
X170317702Y-130761553D01*
X170090054Y-130420853D01*
X169608285Y-130098946D01*
X169040000Y-129985907D01*
X168471715Y-130098946D01*
X167989946Y-130420853D01*
X167962150Y-130462452D01*
X167953162Y-130414683D01*
X167814090Y-130198559D01*
X167601890Y-130053569D01*
X167535000Y-130040023D01*
X167535000Y-128462630D01*
X167585317Y-128453162D01*
X167801441Y-128314090D01*
X167946431Y-128101890D01*
X167960086Y-128034459D01*
X167989946Y-128079147D01*
X168471715Y-128401054D01*
X169040000Y-128514093D01*
X169608285Y-128401054D01*
X170090054Y-128079147D01*
X170317702Y-127738447D01*
X170384817Y-127881358D01*
X170813076Y-128271645D01*
X171223110Y-128441476D01*
X171453000Y-128320155D01*
X171453000Y-127127000D01*
X171707000Y-127127000D01*
X171707000Y-128320155D01*
X171936890Y-128441476D01*
X172346924Y-128271645D01*
X172775183Y-127881358D01*
X173021486Y-127356892D01*
X172900819Y-127127000D01*
X171707000Y-127127000D01*
X171453000Y-127127000D01*
X171433000Y-127127000D01*
X171433000Y-126873000D01*
X171453000Y-126873000D01*
X171453000Y-125679845D01*
X171707000Y-125679845D01*
X171707000Y-126873000D01*
X172900819Y-126873000D01*
X173021486Y-126643108D01*
X172775183Y-126118642D01*
X172346924Y-125728355D01*
X171936890Y-125558524D01*
X171707000Y-125679845D01*
X171453000Y-125679845D01*
X171223110Y-125558524D01*
X170813076Y-125728355D01*
X170384817Y-126118642D01*
X170317702Y-126261553D01*
X170090054Y-125920853D01*
X169608285Y-125598946D01*
X169040000Y-125485907D01*
X168471715Y-125598946D01*
X167989946Y-125920853D01*
X167962150Y-125962452D01*
X167953162Y-125914683D01*
X167814090Y-125698559D01*
X167601890Y-125553569D01*
X167535000Y-125540023D01*
X167535000Y-123962630D01*
X167585317Y-123953162D01*
X167801441Y-123814090D01*
X167946431Y-123601890D01*
X167960086Y-123534459D01*
X167989946Y-123579147D01*
X168471715Y-123901054D01*
X169040000Y-124014093D01*
X169608285Y-123901054D01*
X170090054Y-123579147D01*
X170317702Y-123238447D01*
X170384817Y-123381358D01*
X170813076Y-123771645D01*
X171223110Y-123941476D01*
X171453000Y-123820155D01*
X171453000Y-122627000D01*
X171707000Y-122627000D01*
X171707000Y-123820155D01*
X171936890Y-123941476D01*
X172346924Y-123771645D01*
X172775183Y-123381358D01*
X173021486Y-122856892D01*
X172900819Y-122627000D01*
X171707000Y-122627000D01*
X171453000Y-122627000D01*
X171433000Y-122627000D01*
X171433000Y-122373000D01*
X171453000Y-122373000D01*
X171453000Y-121179845D01*
X171707000Y-121179845D01*
X171707000Y-122373000D01*
X172900819Y-122373000D01*
X173021486Y-122143108D01*
X172775183Y-121618642D01*
X172346924Y-121228355D01*
X171936890Y-121058524D01*
X171707000Y-121179845D01*
X171453000Y-121179845D01*
X171223110Y-121058524D01*
X170813076Y-121228355D01*
X170384817Y-121618642D01*
X170317702Y-121761553D01*
X170090054Y-121420853D01*
X169608285Y-121098946D01*
X169040000Y-120985907D01*
X168471715Y-121098946D01*
X167989946Y-121420853D01*
X167962150Y-121462452D01*
X167953162Y-121414683D01*
X167814090Y-121198559D01*
X167601890Y-121053569D01*
X167350000Y-121002560D01*
X165650000Y-121002560D01*
X165414683Y-121046838D01*
X165198559Y-121185910D01*
X165053569Y-121398110D01*
X165002560Y-121650000D01*
X165002560Y-123350000D01*
X165046838Y-123585317D01*
X165185910Y-123801441D01*
X165398110Y-123946431D01*
X165465000Y-123959977D01*
X165465000Y-125537370D01*
X165414683Y-125546838D01*
X165198559Y-125685910D01*
X165053569Y-125898110D01*
X165002560Y-126150000D01*
X165002560Y-127850000D01*
X165046838Y-128085317D01*
X165185910Y-128301441D01*
X165398110Y-128446431D01*
X165465000Y-128459977D01*
X165465000Y-130037370D01*
X165414683Y-130046838D01*
X165198559Y-130185910D01*
X165053569Y-130398110D01*
X165002560Y-130650000D01*
X165002560Y-132350000D01*
X165046838Y-132585317D01*
X165185910Y-132801441D01*
X165352109Y-132915000D01*
X159500813Y-132915000D01*
X159846924Y-132771645D01*
X160275183Y-132381358D01*
X160521486Y-131856892D01*
X160400819Y-131627000D01*
X159207000Y-131627000D01*
X159207000Y-131647000D01*
X158953000Y-131647000D01*
X158953000Y-131627000D01*
X158933000Y-131627000D01*
X158933000Y-131373000D01*
X158953000Y-131373000D01*
X158953000Y-130179845D01*
X159207000Y-130179845D01*
X159207000Y-131373000D01*
X160400819Y-131373000D01*
X160521486Y-131143108D01*
X160275183Y-130618642D01*
X159846924Y-130228355D01*
X159436890Y-130058524D01*
X159207000Y-130179845D01*
X158953000Y-130179845D01*
X158723110Y-130058524D01*
X158313076Y-130228355D01*
X157884817Y-130618642D01*
X157817702Y-130761553D01*
X157590054Y-130420853D01*
X157108285Y-130098946D01*
X156540000Y-129985907D01*
X155971715Y-130098946D01*
X155489946Y-130420853D01*
X155462150Y-130462452D01*
X155453162Y-130414683D01*
X155314090Y-130198559D01*
X155101890Y-130053569D01*
X155035000Y-130040023D01*
X155035000Y-128462630D01*
X155085317Y-128453162D01*
X155301441Y-128314090D01*
X155446431Y-128101890D01*
X155460086Y-128034459D01*
X155489946Y-128079147D01*
X155971715Y-128401054D01*
X156540000Y-128514093D01*
X157108285Y-128401054D01*
X157590054Y-128079147D01*
X157817702Y-127738447D01*
X157884817Y-127881358D01*
X158313076Y-128271645D01*
X158723110Y-128441476D01*
X158953000Y-128320155D01*
X158953000Y-127127000D01*
X159207000Y-127127000D01*
X159207000Y-128320155D01*
X159436890Y-128441476D01*
X159846924Y-128271645D01*
X160275183Y-127881358D01*
X160521486Y-127356892D01*
X160400819Y-127127000D01*
X159207000Y-127127000D01*
X158953000Y-127127000D01*
X158933000Y-127127000D01*
X158933000Y-126873000D01*
X158953000Y-126873000D01*
X158953000Y-125679845D01*
X159207000Y-125679845D01*
X159207000Y-126873000D01*
X160400819Y-126873000D01*
X160521486Y-126643108D01*
X160275183Y-126118642D01*
X159846924Y-125728355D01*
X159436890Y-125558524D01*
X159207000Y-125679845D01*
X158953000Y-125679845D01*
X158723110Y-125558524D01*
X158313076Y-125728355D01*
X157884817Y-126118642D01*
X157817702Y-126261553D01*
X157590054Y-125920853D01*
X157108285Y-125598946D01*
X156540000Y-125485907D01*
X155971715Y-125598946D01*
X155489946Y-125920853D01*
X155462150Y-125962452D01*
X155453162Y-125914683D01*
X155314090Y-125698559D01*
X155101890Y-125553569D01*
X155035000Y-125540023D01*
X155035000Y-123962630D01*
X155085317Y-123953162D01*
X155301441Y-123814090D01*
X155446431Y-123601890D01*
X155460086Y-123534459D01*
X155489946Y-123579147D01*
X155971715Y-123901054D01*
X156540000Y-124014093D01*
X157108285Y-123901054D01*
X157590054Y-123579147D01*
X157817702Y-123238447D01*
X157884817Y-123381358D01*
X158313076Y-123771645D01*
X158723110Y-123941476D01*
X158953000Y-123820155D01*
X158953000Y-122627000D01*
X159207000Y-122627000D01*
X159207000Y-123820155D01*
X159436890Y-123941476D01*
X159846924Y-123771645D01*
X160275183Y-123381358D01*
X160521486Y-122856892D01*
X160400819Y-122627000D01*
X159207000Y-122627000D01*
X158953000Y-122627000D01*
X158933000Y-122627000D01*
X158933000Y-122373000D01*
X158953000Y-122373000D01*
X158953000Y-121179845D01*
X159207000Y-121179845D01*
X159207000Y-122373000D01*
X160400819Y-122373000D01*
X160521486Y-122143108D01*
X160275183Y-121618642D01*
X159846924Y-121228355D01*
X159436890Y-121058524D01*
X159207000Y-121179845D01*
X158953000Y-121179845D01*
X158723110Y-121058524D01*
X158313076Y-121228355D01*
X157884817Y-121618642D01*
X157817702Y-121761553D01*
X157590054Y-121420853D01*
X157386735Y-121285000D01*
X157750000Y-121285000D01*
X158050407Y-121225245D01*
X158305079Y-121055079D01*
X159805079Y-119555079D01*
X159975245Y-119300407D01*
X160035000Y-119000000D01*
X160035000Y-109250000D01*
X159990293Y-109025245D01*
X159975245Y-108949593D01*
X159805079Y-108694921D01*
X159215079Y-108104921D01*
X158960407Y-107934755D01*
X158660000Y-107875000D01*
X157316291Y-107875000D01*
X157162811Y-107645302D01*
X156780725Y-107390000D01*
X157162811Y-107134698D01*
X157473880Y-106669151D01*
X157583113Y-106120000D01*
X157524554Y-105825604D01*
X158065158Y-105285000D01*
X159500000Y-105285000D01*
X159800407Y-105225245D01*
X160055079Y-105055079D01*
X161455079Y-103655079D01*
X161625245Y-103400407D01*
X161685000Y-103100000D01*
X161685000Y-96700000D01*
X161625245Y-96399594D01*
X161625245Y-96399593D01*
X161455079Y-96144921D01*
X159455079Y-94144921D01*
X159200407Y-93974755D01*
X158900000Y-93915000D01*
X146700000Y-93915000D01*
X146399593Y-93974755D01*
X146144921Y-94144921D01*
X143344921Y-96944921D01*
X143174755Y-97199593D01*
X143145847Y-97344921D01*
X143115000Y-97500000D01*
X143115000Y-109254842D01*
X142465079Y-108604921D01*
X142210407Y-108434755D01*
X141910000Y-108375000D01*
X140756250Y-108375000D01*
X140579147Y-108109946D01*
X140249974Y-107890000D01*
X140579147Y-107670054D01*
X140901054Y-107188285D01*
X141014093Y-106620000D01*
X140901054Y-106051715D01*
X140579147Y-105569946D01*
X140249974Y-105350000D01*
X140579147Y-105130054D01*
X140901054Y-104648285D01*
X141014093Y-104080000D01*
X140901054Y-103511715D01*
X140579147Y-103029946D01*
X140249974Y-102810000D01*
X140579147Y-102590054D01*
X140901054Y-102108285D01*
X141014093Y-101540000D01*
X140901054Y-100971715D01*
X140579147Y-100489946D01*
X140537548Y-100462150D01*
X140585317Y-100453162D01*
X140801441Y-100314090D01*
X140946431Y-100101890D01*
X140997440Y-99850000D01*
X140997440Y-98150000D01*
X140953162Y-97914683D01*
X140814090Y-97698559D01*
X140601890Y-97553569D01*
X140350000Y-97502560D01*
X138650000Y-97502560D01*
X138414683Y-97546838D01*
X138198559Y-97685910D01*
X138053569Y-97898110D01*
X138002560Y-98150000D01*
X138002560Y-99850000D01*
X138046838Y-100085317D01*
X138185910Y-100301441D01*
X138398110Y-100446431D01*
X138465541Y-100460086D01*
X138420853Y-100489946D01*
X138098946Y-100971715D01*
X137985907Y-101540000D01*
X138098946Y-102108285D01*
X138420853Y-102590054D01*
X138750026Y-102810000D01*
X138420853Y-103029946D01*
X138098946Y-103511715D01*
X137985907Y-104080000D01*
X138098946Y-104648285D01*
X138420853Y-105130054D01*
X138750026Y-105350000D01*
X138420853Y-105569946D01*
X138098946Y-106051715D01*
X137985907Y-106620000D01*
X138098946Y-107188285D01*
X138420853Y-107670054D01*
X138750026Y-107890000D01*
X138420853Y-108109946D01*
X138098946Y-108591715D01*
X137985907Y-109160000D01*
X138098946Y-109728285D01*
X138420853Y-110210054D01*
X138750026Y-110430000D01*
X138420853Y-110649946D01*
X138098946Y-111131715D01*
X137985907Y-111700000D01*
X138098946Y-112268285D01*
X138420853Y-112750054D01*
X138750026Y-112970000D01*
X138420853Y-113189946D01*
X138098946Y-113671715D01*
X137985907Y-114240000D01*
X138098946Y-114808285D01*
X138420853Y-115290054D01*
X138750026Y-115510000D01*
X138420853Y-115729946D01*
X138098946Y-116211715D01*
X137985907Y-116780000D01*
X138098946Y-117348285D01*
X138420853Y-117830054D01*
X138902622Y-118151961D01*
X139470907Y-118265000D01*
X139529093Y-118265000D01*
X140097378Y-118151961D01*
X140579147Y-117830054D01*
X140756250Y-117565000D01*
X143644842Y-117565000D01*
X143715000Y-117635158D01*
X143715000Y-118750000D01*
X143774755Y-119050407D01*
X143944921Y-119305079D01*
X145694921Y-121055079D01*
X145949594Y-121225245D01*
X146250000Y-121285000D01*
X152630854Y-121285000D01*
X152553569Y-121398110D01*
X152502560Y-121650000D01*
X152502560Y-123350000D01*
X152546838Y-123585317D01*
X152685910Y-123801441D01*
X152898110Y-123946431D01*
X152965000Y-123959977D01*
X152965000Y-125537370D01*
X152914683Y-125546838D01*
X152698559Y-125685910D01*
X152553569Y-125898110D01*
X152502560Y-126150000D01*
X152502560Y-127850000D01*
X152546838Y-128085317D01*
X152685910Y-128301441D01*
X152898110Y-128446431D01*
X152965000Y-128459977D01*
X152965000Y-130037370D01*
X152914683Y-130046838D01*
X152698559Y-130185910D01*
X152553569Y-130398110D01*
X152502560Y-130650000D01*
X152502560Y-132350000D01*
X152546838Y-132585317D01*
X152685910Y-132801441D01*
X152852109Y-132915000D01*
X146580813Y-132915000D01*
X146926924Y-132771645D01*
X147355183Y-132381358D01*
X147601486Y-131856892D01*
X147480819Y-131627000D01*
X146287000Y-131627000D01*
X146287000Y-131647000D01*
X146033000Y-131647000D01*
X146033000Y-131627000D01*
X146013000Y-131627000D01*
X146013000Y-131373000D01*
X146033000Y-131373000D01*
X146033000Y-131353000D01*
X146287000Y-131353000D01*
X146287000Y-131373000D01*
X147480819Y-131373000D01*
X147601486Y-131143108D01*
X147355183Y-130618642D01*
X146926924Y-130228355D01*
X146926899Y-130228345D01*
X147210054Y-130039147D01*
X147531961Y-129557378D01*
X147645000Y-128989093D01*
X147645000Y-128930907D01*
X147531961Y-128362622D01*
X147210054Y-127880853D01*
X146991769Y-127735000D01*
X149363275Y-127735000D01*
X149483233Y-127784811D01*
X149914873Y-127785188D01*
X150313800Y-127620354D01*
X150619282Y-127315405D01*
X150784811Y-126916767D01*
X150785188Y-126485127D01*
X150620354Y-126086200D01*
X150315405Y-125780718D01*
X149916767Y-125615189D01*
X149485127Y-125614812D01*
X149363663Y-125665000D01*
X146636725Y-125665000D01*
X146516767Y-125615189D01*
X146085127Y-125614812D01*
X145686200Y-125779646D01*
X145380718Y-126084595D01*
X145215189Y-126483233D01*
X145214812Y-126914873D01*
X145379646Y-127313800D01*
X145618955Y-127553528D01*
X145591715Y-127558946D01*
X145109946Y-127880853D01*
X144890000Y-128210026D01*
X144670054Y-127880853D01*
X144188285Y-127558946D01*
X143620000Y-127445907D01*
X143051715Y-127558946D01*
X142569946Y-127880853D01*
X142350000Y-128210026D01*
X142130054Y-127880853D01*
X141648285Y-127558946D01*
X141080000Y-127445907D01*
X140511715Y-127558946D01*
X140029946Y-127880853D01*
X139810000Y-128210026D01*
X139590054Y-127880853D01*
X139108285Y-127558946D01*
X138540000Y-127445907D01*
X137971715Y-127558946D01*
X137489946Y-127880853D01*
X137270000Y-128210026D01*
X137050054Y-127880853D01*
X136568285Y-127558946D01*
X136000000Y-127445907D01*
X135431715Y-127558946D01*
X134949946Y-127880853D01*
X134628039Y-128362622D01*
X134515000Y-128930907D01*
X134515000Y-128989093D01*
X134628039Y-129557378D01*
X134949946Y-130039147D01*
X134951179Y-130039971D01*
X134914683Y-130046838D01*
X134698559Y-130185910D01*
X134553569Y-130398110D01*
X134502560Y-130650000D01*
X134502560Y-132350000D01*
X134546838Y-132585317D01*
X134685910Y-132801441D01*
X134898110Y-132946431D01*
X135150000Y-132997440D01*
X136850000Y-132997440D01*
X137085317Y-132953162D01*
X137301441Y-132814090D01*
X137446431Y-132601890D01*
X137460086Y-132534459D01*
X137489946Y-132579147D01*
X137971715Y-132901054D01*
X138540000Y-133014093D01*
X139108285Y-132901054D01*
X139590054Y-132579147D01*
X139810000Y-132249974D01*
X140029946Y-132579147D01*
X140373791Y-132808896D01*
X140524921Y-133035079D01*
X141744921Y-134255079D01*
X141921403Y-134373000D01*
X114627000Y-134373000D01*
X114627000Y-86627000D01*
X211373000Y-86627000D01*
X211373000Y-134373000D01*
G36*
X152302352Y-97086379D02*
X153199726Y-97873159D01*
X153199726Y-99984726D01*
X153259481Y-100285133D01*
X153429647Y-100539805D01*
X154484921Y-101595079D01*
X154739594Y-101765245D01*
X154905884Y-101798322D01*
X155077189Y-102054698D01*
X155459275Y-102310000D01*
X155077189Y-102565302D01*
X154766120Y-103030849D01*
X154656887Y-103580000D01*
X154766120Y-104129151D01*
X155077189Y-104594698D01*
X155459275Y-104850000D01*
X155077189Y-105105302D01*
X154766120Y-105570849D01*
X154656887Y-106120000D01*
X154766120Y-106669151D01*
X155077189Y-107134698D01*
X155459275Y-107390000D01*
X155077189Y-107645302D01*
X154766120Y-108110849D01*
X154656887Y-108660000D01*
X154766120Y-109209151D01*
X155077189Y-109674698D01*
X155459275Y-109930000D01*
X155077189Y-110185302D01*
X154766120Y-110650849D01*
X154656887Y-111200000D01*
X154766120Y-111749151D01*
X155077189Y-112214698D01*
X155459275Y-112470000D01*
X155077189Y-112725302D01*
X154766120Y-113190849D01*
X154656887Y-113740000D01*
X154766120Y-114289151D01*
X155077189Y-114754698D01*
X155459275Y-115010000D01*
X155077189Y-115265302D01*
X154766120Y-115730849D01*
X154656887Y-116280000D01*
X154766120Y-116829151D01*
X155077189Y-117294698D01*
X155332064Y-117465000D01*
X149286230Y-117465000D01*
X149355134Y-117432389D01*
X149731041Y-117017423D01*
X149891904Y-116629039D01*
X149769915Y-116407000D01*
X148627000Y-116407000D01*
X148627000Y-116427000D01*
X148373000Y-116427000D01*
X148373000Y-116407000D01*
X148353000Y-116407000D01*
X148353000Y-116153000D01*
X148373000Y-116153000D01*
X148373000Y-116133000D01*
X148627000Y-116133000D01*
X148627000Y-116153000D01*
X149769915Y-116153000D01*
X149891904Y-115930961D01*
X149731041Y-115542577D01*
X149355134Y-115127611D01*
X149138297Y-115024986D01*
X149542811Y-114754698D01*
X149853880Y-114289151D01*
X149963113Y-113740000D01*
X149853880Y-113190849D01*
X149542811Y-112725302D01*
X149160725Y-112470000D01*
X149542811Y-112214698D01*
X149853880Y-111749151D01*
X149963113Y-111200000D01*
X149853880Y-110650849D01*
X149542811Y-110185302D01*
X149160725Y-109930000D01*
X149542811Y-109674698D01*
X149853880Y-109209151D01*
X149963113Y-108660000D01*
X149853880Y-108110849D01*
X149542811Y-107645302D01*
X149160725Y-107390000D01*
X149542811Y-107134698D01*
X149853880Y-106669151D01*
X149963113Y-106120000D01*
X149853880Y-105570849D01*
X149542811Y-105105302D01*
X149160725Y-104850000D01*
X149542811Y-104594698D01*
X149853880Y-104129151D01*
X149963113Y-103580000D01*
X149853880Y-103030849D01*
X149542811Y-102565302D01*
X149160725Y-102310000D01*
X149542811Y-102054698D01*
X149853880Y-101589151D01*
X149963113Y-101040000D01*
X149853880Y-100490849D01*
X149542811Y-100025302D01*
X149398535Y-99928899D01*
X149535317Y-99903162D01*
X149751441Y-99764090D01*
X149896431Y-99551890D01*
X149947440Y-99300000D01*
X149947440Y-97700000D01*
X149903162Y-97464683D01*
X149764090Y-97248559D01*
X149551890Y-97103569D01*
X149462978Y-97085564D01*
X152302352Y-97086379D01*
X152302352Y-97086379D01*
G37*
X152302352Y-97086379D02*
X153199726Y-97873159D01*
X153199726Y-99984726D01*
X153259481Y-100285133D01*
X153429647Y-100539805D01*
X154484921Y-101595079D01*
X154739594Y-101765245D01*
X154905884Y-101798322D01*
X155077189Y-102054698D01*
X155459275Y-102310000D01*
X155077189Y-102565302D01*
X154766120Y-103030849D01*
X154656887Y-103580000D01*
X154766120Y-104129151D01*
X155077189Y-104594698D01*
X155459275Y-104850000D01*
X155077189Y-105105302D01*
X154766120Y-105570849D01*
X154656887Y-106120000D01*
X154766120Y-106669151D01*
X155077189Y-107134698D01*
X155459275Y-107390000D01*
X155077189Y-107645302D01*
X154766120Y-108110849D01*
X154656887Y-108660000D01*
X154766120Y-109209151D01*
X155077189Y-109674698D01*
X155459275Y-109930000D01*
X155077189Y-110185302D01*
X154766120Y-110650849D01*
X154656887Y-111200000D01*
X154766120Y-111749151D01*
X155077189Y-112214698D01*
X155459275Y-112470000D01*
X155077189Y-112725302D01*
X154766120Y-113190849D01*
X154656887Y-113740000D01*
X154766120Y-114289151D01*
X155077189Y-114754698D01*
X155459275Y-115010000D01*
X155077189Y-115265302D01*
X154766120Y-115730849D01*
X154656887Y-116280000D01*
X154766120Y-116829151D01*
X155077189Y-117294698D01*
X155332064Y-117465000D01*
X149286230Y-117465000D01*
X149355134Y-117432389D01*
X149731041Y-117017423D01*
X149891904Y-116629039D01*
X149769915Y-116407000D01*
X148627000Y-116407000D01*
X148627000Y-116427000D01*
X148373000Y-116427000D01*
X148373000Y-116407000D01*
X148353000Y-116407000D01*
X148353000Y-116153000D01*
X148373000Y-116153000D01*
X148373000Y-116133000D01*
X148627000Y-116133000D01*
X148627000Y-116153000D01*
X149769915Y-116153000D01*
X149891904Y-115930961D01*
X149731041Y-115542577D01*
X149355134Y-115127611D01*
X149138297Y-115024986D01*
X149542811Y-114754698D01*
X149853880Y-114289151D01*
X149963113Y-113740000D01*
X149853880Y-113190849D01*
X149542811Y-112725302D01*
X149160725Y-112470000D01*
X149542811Y-112214698D01*
X149853880Y-111749151D01*
X149963113Y-111200000D01*
X149853880Y-110650849D01*
X149542811Y-110185302D01*
X149160725Y-109930000D01*
X149542811Y-109674698D01*
X149853880Y-109209151D01*
X149963113Y-108660000D01*
X149853880Y-108110849D01*
X149542811Y-107645302D01*
X149160725Y-107390000D01*
X149542811Y-107134698D01*
X149853880Y-106669151D01*
X149963113Y-106120000D01*
X149853880Y-105570849D01*
X149542811Y-105105302D01*
X149160725Y-104850000D01*
X149542811Y-104594698D01*
X149853880Y-104129151D01*
X149963113Y-103580000D01*
X149853880Y-103030849D01*
X149542811Y-102565302D01*
X149160725Y-102310000D01*
X149542811Y-102054698D01*
X149853880Y-101589151D01*
X149963113Y-101040000D01*
X149853880Y-100490849D01*
X149542811Y-100025302D01*
X149398535Y-99928899D01*
X149535317Y-99903162D01*
X149751441Y-99764090D01*
X149896431Y-99551890D01*
X149947440Y-99300000D01*
X149947440Y-97700000D01*
X149903162Y-97464683D01*
X149764090Y-97248559D01*
X149551890Y-97103569D01*
X149462978Y-97085564D01*
X152302352Y-97086379D01*
M02*
