G04 #@! TF.FileFunction,Soldermask,Bot*
%FSLAX46Y46*%
G04 Gerber Fmt 4.6, Leading zero omitted, Abs format (unit mm)*
G04 Created by KiCad (PCBNEW 4.0.7) date 10/28/18 02:33:58*
%MOMM*%
%LPD*%
G01*
G04 APERTURE LIST*
%ADD10C,0.100000*%
%ADD11R,1.800000X1.800000*%
%ADD12O,1.800000X1.800000*%
%ADD13R,1.900000X1.900000*%
%ADD14O,1.900000X1.900000*%
G04 APERTURE END LIST*
D10*
D11*
X148500000Y-98500000D03*
D12*
X156120000Y-116280000D03*
X148500000Y-101040000D03*
X156120000Y-113740000D03*
X148500000Y-103580000D03*
X156120000Y-111200000D03*
X148500000Y-106120000D03*
X156120000Y-108660000D03*
X148500000Y-108660000D03*
X156120000Y-106120000D03*
X148500000Y-111200000D03*
X156120000Y-103580000D03*
X148500000Y-113740000D03*
X156120000Y-101040000D03*
X148500000Y-116280000D03*
X156120000Y-98500000D03*
D13*
X166500000Y-122500000D03*
D14*
X169040000Y-122500000D03*
X171580000Y-122500000D03*
D13*
X166500000Y-127000000D03*
D14*
X169040000Y-127000000D03*
X171580000Y-127000000D03*
D13*
X166500000Y-131500000D03*
D14*
X169040000Y-131500000D03*
X171580000Y-131500000D03*
D13*
X187250000Y-98750000D03*
D14*
X187250000Y-101290000D03*
X187250000Y-103830000D03*
X187250000Y-106370000D03*
X187250000Y-108910000D03*
X187250000Y-111450000D03*
X187250000Y-113990000D03*
X187250000Y-116530000D03*
D13*
X139500000Y-99000000D03*
D14*
X139500000Y-101540000D03*
X139500000Y-104080000D03*
X139500000Y-106620000D03*
X139500000Y-109160000D03*
X139500000Y-111700000D03*
X139500000Y-114240000D03*
X139500000Y-116780000D03*
D11*
X168500000Y-98500000D03*
D12*
X176120000Y-116280000D03*
X168500000Y-101040000D03*
X176120000Y-113740000D03*
X168500000Y-103580000D03*
X176120000Y-111200000D03*
X168500000Y-106120000D03*
X176120000Y-108660000D03*
X168500000Y-108660000D03*
X176120000Y-106120000D03*
X168500000Y-111200000D03*
X176120000Y-103580000D03*
X168500000Y-113740000D03*
X176120000Y-101040000D03*
X168500000Y-116280000D03*
X176120000Y-98500000D03*
D13*
X136000000Y-131500000D03*
D14*
X136000000Y-128960000D03*
X138540000Y-131500000D03*
X138540000Y-128960000D03*
X141080000Y-131500000D03*
X141080000Y-128960000D03*
X143620000Y-131500000D03*
X143620000Y-128960000D03*
X146160000Y-131500000D03*
X146160000Y-128960000D03*
D13*
X154000000Y-122500000D03*
D14*
X156540000Y-122500000D03*
X159080000Y-122500000D03*
D13*
X154000000Y-127000000D03*
D14*
X156540000Y-127000000D03*
X159080000Y-127000000D03*
D13*
X154000000Y-131500000D03*
D14*
X156540000Y-131500000D03*
X159080000Y-131500000D03*
M02*
