G04 #@! TF.FileFunction,Soldermask,Top*
%FSLAX46Y46*%
G04 Gerber Fmt 4.6, Leading zero omitted, Abs format (unit mm)*
G04 Created by KiCad (PCBNEW 4.0.7) date 10/28/18 02:33:58*
%MOMM*%
%LPD*%
G01*
G04 APERTURE LIST*
%ADD10C,0.100000*%
%ADD11R,1.800000X1.800000*%
%ADD12O,1.800000X1.800000*%
%ADD13R,1.450000X1.200000*%
%ADD14R,1.900000X1.900000*%
%ADD15O,1.900000X1.900000*%
%ADD16R,0.900000X1.500000*%
%ADD17R,4.200000X2.700000*%
%ADD18R,1.700000X1.700000*%
%ADD19R,1.100000X1.000000*%
%ADD20R,1.000000X1.100000*%
%ADD21R,1.500000X0.900000*%
G04 APERTURE END LIST*
D10*
D11*
X148500000Y-98500000D03*
D12*
X156120000Y-116280000D03*
X148500000Y-101040000D03*
X156120000Y-113740000D03*
X148500000Y-103580000D03*
X156120000Y-111200000D03*
X148500000Y-106120000D03*
X156120000Y-108660000D03*
X148500000Y-108660000D03*
X156120000Y-106120000D03*
X148500000Y-111200000D03*
X156120000Y-103580000D03*
X148500000Y-113740000D03*
X156120000Y-101040000D03*
X148500000Y-116280000D03*
X156120000Y-98500000D03*
D13*
X158500000Y-98250000D03*
X158500000Y-100250000D03*
D14*
X166500000Y-122500000D03*
D15*
X169040000Y-122500000D03*
X171580000Y-122500000D03*
D14*
X166500000Y-127000000D03*
D15*
X169040000Y-127000000D03*
X171580000Y-127000000D03*
D16*
X145550000Y-125000000D03*
X147450000Y-125000000D03*
X143950000Y-125000000D03*
X142050000Y-125000000D03*
D17*
X143750000Y-91300000D03*
X137650000Y-91300000D03*
D13*
X179250000Y-98250000D03*
X179250000Y-100250000D03*
D17*
X182950000Y-91000000D03*
X189050000Y-91000000D03*
D14*
X166500000Y-131500000D03*
D15*
X169040000Y-131500000D03*
X171580000Y-131500000D03*
D14*
X187250000Y-98750000D03*
D15*
X187250000Y-101290000D03*
X187250000Y-103830000D03*
X187250000Y-106370000D03*
X187250000Y-108910000D03*
X187250000Y-111450000D03*
X187250000Y-113990000D03*
X187250000Y-116530000D03*
D14*
X139500000Y-99000000D03*
D15*
X139500000Y-101540000D03*
X139500000Y-104080000D03*
X139500000Y-106620000D03*
X139500000Y-109160000D03*
X139500000Y-111700000D03*
X139500000Y-114240000D03*
X139500000Y-116780000D03*
D16*
X180050000Y-106100000D03*
X178150000Y-106100000D03*
X192200000Y-98750000D03*
X190300000Y-98750000D03*
X192200000Y-101250000D03*
X190300000Y-101250000D03*
X192200000Y-103750000D03*
X190300000Y-103750000D03*
X160050000Y-106100000D03*
X158150000Y-106100000D03*
X192200000Y-106250000D03*
X190300000Y-106250000D03*
X209700000Y-90750000D03*
X207800000Y-90750000D03*
X209700000Y-95750000D03*
X207800000Y-95750000D03*
X209700000Y-100750000D03*
X207800000Y-100750000D03*
X209700000Y-105750000D03*
X207800000Y-105750000D03*
X192200000Y-109000000D03*
X190300000Y-109000000D03*
X192200000Y-111750000D03*
X190300000Y-111750000D03*
X192200000Y-114250000D03*
X190300000Y-114250000D03*
X192200000Y-117000000D03*
X190300000Y-117000000D03*
X209700000Y-110750000D03*
X207800000Y-110750000D03*
X209700000Y-115750000D03*
X207800000Y-115750000D03*
X209700000Y-120750000D03*
X207800000Y-120750000D03*
X209700000Y-125750000D03*
X207800000Y-125750000D03*
X134550000Y-99000000D03*
X136450000Y-99000000D03*
X134550000Y-101500000D03*
X136450000Y-101500000D03*
X134550000Y-104000000D03*
X136450000Y-104000000D03*
X134550000Y-107000000D03*
X136450000Y-107000000D03*
X117050000Y-91000000D03*
X118950000Y-91000000D03*
X117050000Y-96000000D03*
X118950000Y-96000000D03*
X117050000Y-101000000D03*
X118950000Y-101000000D03*
X117050000Y-106000000D03*
X118950000Y-106000000D03*
X134550000Y-109500000D03*
X136450000Y-109500000D03*
X134550000Y-112000000D03*
X136450000Y-112000000D03*
X134550000Y-114500000D03*
X136450000Y-114500000D03*
X134550000Y-117000000D03*
X136450000Y-117000000D03*
X117050000Y-111000000D03*
X118950000Y-111000000D03*
X117050000Y-116000000D03*
X118950000Y-116000000D03*
X117050000Y-121000000D03*
X118950000Y-121000000D03*
X117050000Y-126000000D03*
X118950000Y-126000000D03*
D11*
X168500000Y-98500000D03*
D12*
X176120000Y-116280000D03*
X168500000Y-101040000D03*
X176120000Y-113740000D03*
X168500000Y-103580000D03*
X176120000Y-111200000D03*
X168500000Y-106120000D03*
X176120000Y-108660000D03*
X168500000Y-108660000D03*
X176120000Y-106120000D03*
X168500000Y-111200000D03*
X176120000Y-103580000D03*
X168500000Y-113740000D03*
X176120000Y-101040000D03*
X168500000Y-116280000D03*
X176120000Y-98500000D03*
D18*
X201400000Y-91750000D03*
X198100000Y-91750000D03*
X201400000Y-96750000D03*
X198100000Y-96750000D03*
X201400000Y-101750000D03*
X198100000Y-101750000D03*
X201400000Y-106750000D03*
X198100000Y-106750000D03*
X201400000Y-111750000D03*
X198100000Y-111750000D03*
X201400000Y-116750000D03*
X198100000Y-116750000D03*
X201400000Y-121750000D03*
X198100000Y-121750000D03*
X201400000Y-126750000D03*
X198100000Y-126750000D03*
X125850000Y-90250000D03*
X129150000Y-90250000D03*
X125850000Y-95000000D03*
X129150000Y-95000000D03*
X125850000Y-100000000D03*
X129150000Y-100000000D03*
X125850000Y-105000000D03*
X129150000Y-105000000D03*
X125850000Y-110000000D03*
X129150000Y-110000000D03*
X125850000Y-115000000D03*
X129150000Y-115000000D03*
X125850000Y-120000000D03*
X129150000Y-120000000D03*
X125850000Y-125000000D03*
X129150000Y-125000000D03*
D19*
X203750000Y-89800000D03*
X203750000Y-91700000D03*
X205750000Y-90750000D03*
X203750000Y-94800000D03*
X203750000Y-96700000D03*
X205750000Y-95750000D03*
X203750000Y-99800000D03*
X203750000Y-101700000D03*
X205750000Y-100750000D03*
X203750000Y-104800000D03*
X203750000Y-106700000D03*
X205750000Y-105750000D03*
X203750000Y-109800000D03*
X203750000Y-111700000D03*
X205750000Y-110750000D03*
X203750000Y-114800000D03*
X203750000Y-116700000D03*
X205750000Y-115750000D03*
X203750000Y-119800000D03*
X203750000Y-121700000D03*
X205750000Y-120750000D03*
X203750000Y-124800000D03*
X203750000Y-126700000D03*
X205750000Y-125750000D03*
X123000000Y-91950000D03*
X123000000Y-90050000D03*
X121000000Y-91000000D03*
X123000000Y-106950000D03*
X123000000Y-105050000D03*
X121000000Y-106000000D03*
X123000000Y-111950000D03*
X123000000Y-110050000D03*
X121000000Y-111000000D03*
X123000000Y-116950000D03*
X123000000Y-115050000D03*
X121000000Y-116000000D03*
X123000000Y-121950000D03*
X123000000Y-120050000D03*
X121000000Y-121000000D03*
X123000000Y-126950000D03*
X123000000Y-125050000D03*
X121000000Y-126000000D03*
X123000000Y-96950000D03*
X123000000Y-95050000D03*
X121000000Y-96000000D03*
X123000000Y-101950000D03*
X123000000Y-100050000D03*
X121000000Y-101000000D03*
D18*
X188100000Y-130750000D03*
X191400000Y-130750000D03*
X188100000Y-127500000D03*
X191400000Y-127500000D03*
D20*
X181950000Y-130500000D03*
X180050000Y-130500000D03*
X181000000Y-132500000D03*
X187300000Y-123750000D03*
X189200000Y-123750000D03*
X188250000Y-121750000D03*
D16*
X181950000Y-127250000D03*
X180050000Y-127250000D03*
D21*
X177100000Y-130550000D03*
X177100000Y-132450000D03*
D16*
X184200000Y-123750000D03*
X182300000Y-123750000D03*
X182300000Y-120250000D03*
X184200000Y-120250000D03*
D14*
X136000000Y-131500000D03*
D15*
X136000000Y-128960000D03*
X138540000Y-131500000D03*
X138540000Y-128960000D03*
X141080000Y-131500000D03*
X141080000Y-128960000D03*
X143620000Y-131500000D03*
X143620000Y-128960000D03*
X146160000Y-131500000D03*
X146160000Y-128960000D03*
D14*
X154000000Y-122500000D03*
D15*
X156540000Y-122500000D03*
X159080000Y-122500000D03*
D14*
X154000000Y-127000000D03*
D15*
X156540000Y-127000000D03*
X159080000Y-127000000D03*
D14*
X154000000Y-131500000D03*
D15*
X156540000Y-131500000D03*
X159080000Y-131500000D03*
M02*
