M48
INCH,TZ
T1C0.012
T2C0.020
T3C0.028
T4C0.031
T5C0.039
%
G90
G05
T1
X56654Y-43425
X57126Y-43819
X57598Y-44291
X64921Y-46339
X65354Y-43701
X65354Y-46102
X70276Y-44390
X70571Y-43898
X70866Y-42913
X71457Y-46260
X71949Y-42520
X71949Y-46260
T2
X70866Y-50787
X72933Y-50787
T3
X51476Y-35531
X51476Y-37402
X51476Y-39370
X51476Y-41339
X51476Y-43307
X51476Y-45276
X51476Y-47244
X51476Y-49213
X53031Y-35945
X57598Y-49882
X58858Y-48858
X58937Y-49882
X64075Y-39469
X67362Y-36969
X67362Y-38386
X69961Y-39252
X69961Y-40354
X70787Y-40039
X75492Y-35827
X75984Y-50197
X75984Y-51476
X77362Y-36122
X77362Y-38091
X77362Y-40059
X77362Y-42028
X77362Y-43996
X77362Y-45965
X77362Y-47933
X77362Y-49902
T4
X58465Y-38780
X58465Y-39780
X58465Y-40780
X58465Y-41780
X58465Y-42780
X58465Y-43780
X58465Y-44780
X58465Y-45780
X61465Y-38780
X61465Y-39780
X61465Y-40780
X61465Y-41780
X61465Y-42780
X61465Y-43780
X61465Y-44780
X61465Y-45780
X66339Y-38780
X66339Y-39780
X66339Y-40780
X66339Y-41780
X66339Y-42780
X66339Y-43780
X66339Y-44780
X66339Y-45780
X69339Y-38780
X69339Y-39780
X69339Y-40780
X69339Y-41780
X69339Y-42780
X69339Y-43780
X69339Y-44780
X69339Y-45780
T5
X53543Y-50772
X53543Y-51772
X54543Y-50772
X54543Y-51772
X54921Y-38976
X54921Y-39976
X54921Y-40976
X54921Y-41976
X54921Y-42976
X54921Y-43976
X54921Y-44976
X54921Y-45976
X55543Y-50772
X55543Y-51772
X56543Y-50772
X56543Y-51772
X57543Y-50772
X57543Y-51772
X60630Y-48228
X60630Y-50000
X60630Y-51772
X61630Y-48228
X61630Y-50000
X61630Y-51772
X62630Y-48228
X62630Y-50000
X62630Y-51772
X65551Y-48228
X65551Y-50000
X65551Y-51772
X66551Y-48228
X66551Y-50000
X66551Y-51772
X67551Y-48228
X67551Y-50000
X67551Y-51772
X73720Y-38878
X73720Y-39878
X73720Y-40878
X73720Y-41878
X73720Y-42878
X73720Y-43878
X73720Y-44878
X73720Y-45878
T0
M30
